<?xml version="1.0" encoding="utf-8"?>
<!-- Generator: Adobe Illustrator 22.0.1, SVG Export Plug-In . SVG Version: 6.00 Build 0)  -->
<svg version="1.1" id="Слой_1" xmlns="http://www.w3.org/2000/svg" xmlns:xlink="http://www.w3.org/1999/xlink" x="0px" y="0px"
	 viewBox="0 0 600 800" style="enable-background:new 0 0 600 800;" xml:space="preserve">
<polygon points="282.8,504.9 280.1,474.8 205.5,516.1 "/>
<polygon points="236.5,552.3 282.8,504.9 205.5,516.1 "/>
<polygon points="296.1,565.4 282.8,504.9 236.5,552.3 "/>
<polygon points="295.1,511.9 282.8,504.9 296.1,565.4 "/>
<polygon points="205.5,516.1 280.1,474.8 197.9,446.5 "/>
<polygon points="197.9,446.5 280.1,474.8 197.9,354.1 "/>
<polygon points="354.6,550 295.1,511.9 296.1,565.4 "/>
<polygon points="280.1,474.8 280.1,327.9 197.9,354.1 "/>
<polygon points="310,471.8 307.1,504.9 385.3,514 "/>
<polygon points="392.2,432 310,432 392.2,444.4 "/>
<polygon points="392.2,444.4 310,471.8 385.3,514 "/>
<polygon points="307.1,504.9 295.1,511.9 354.6,550 "/>
<polygon points="385.3,514 307.1,504.9 354.6,550 "/>
<polygon points="310,432 310,471.8 392.2,444.4 "/>
<polygon points="307.3,295.4 310,325.3 384.8,285 "/>
<polygon points="197.9,354.1 280.1,327.9 200.2,302.8 "/>
<polygon points="384.8,285 310,325.3 392.2,350.2 "/>
<polygon points="392.2,380.3 392.2,350.2 310,380.3 "/>
<polygon points="293.8,235.9 307.3,295.4 353.7,250 "/>
<polygon points="392.2,350.2 310,325.3 310,380.3 "/>
<polygon points="353.7,250 307.3,295.4 384.8,285 "/>
<polygon points="295.7,289.5 307.3,295.4 293.8,235.9 "/>
<polygon points="280.1,327.9 282.8,296.7 214.2,269.9 "/>
<polygon points="200.2,302.8 280.1,327.9 214.2,269.9 "/>
<polygon points="214.2,269.9 282.8,296.7 246.4,245 "/>
<polygon points="246.4,245 295.7,289.5 293.8,235.9 "/>
<polygon points="282.8,296.7 295.7,289.5 246.4,245 "/>
</svg>
