<?xml version="1.0" encoding="utf-8"?>
<!-- Generator: Adobe Illustrator 22.0.1, SVG Export Plug-In . SVG Version: 6.00 Build 0)  -->
<svg version="1.1" id="Слой_1" xmlns="http://www.w3.org/2000/svg" xmlns:xlink="http://www.w3.org/1999/xlink" x="0px" y="0px"
	 viewBox="0 0 600 800" style="enable-background:new 0 0 600 800;" xml:space="preserve">
<g>
	<polygon points="259.3,467 282.1,508.1 269.7,463.8 	"/>
	<polygon points="282.1,508.1 312.8,504.9 269.7,463.8 	"/>
	<polygon points="251.2,508.1 282.1,508.1 259.3,467 	"/>
	<polygon points="251.2,466.6 251.2,508.1 259.3,467 	"/>
	<polygon points="312.8,504.9 328.9,493.6 274.1,455.9 	"/>
	<polygon points="269.7,463.8 312.8,504.9 274.1,455.9 	"/>
	<polygon points="274.7,437.7 336.4,429.4 274.7,270.9 	"/>
	<polygon points="274.7,270.9 336.4,429.4 336.4,270.9 	"/>
	<polygon points="274.1,455.9 336.4,429.4 274.7,437.7 	"/>
	<polygon points="335.6,475.2 336.4,429.4 274.1,455.9 	"/>
	<polygon points="328.9,493.6 335.6,475.2 274.1,455.9 	"/>
</g>
</svg>
