<?xml version="1.0" encoding="utf-8"?>
<!-- Generator: Adobe Illustrator 22.0.1, SVG Export Plug-In . SVG Version: 6.00 Build 0)  -->
<svg version="1.1" id="Слой_1" xmlns="http://www.w3.org/2000/svg" xmlns:xlink="http://www.w3.org/1999/xlink" x="0px" y="0px"
	 viewBox="0 0 1200 1200" style="enable-background:new 0 0 1200 1200;" xml:space="preserve">
<g>
	<polygon points="569.1,725.3 570,664.3 487,699.6 	"/>
	<polygon points="570,664.3 570,453 487,699.6 	"/>
	<polygon points="560.1,749.8 569.1,725.3 487,699.6 	"/>
	<polygon points="487.8,675.4 570,453 487.8,453 	"/>
	<polygon points="487,699.6 570,453 487.8,675.4 	"/>
	<polygon points="467.3,714.5 497.8,769.2 481.2,710.2 	"/>
	<polygon points="538.6,765 560.1,749.8 487,699.6 	"/>
	<polygon points="456.6,713.9 497.8,769.2 467.3,714.5 	"/>
	<polygon points="456.6,769.2 497.8,769.2 456.6,713.9 	"/>
	<polygon points="497.8,769.2 538.6,765 481.2,710.2 	"/>
	<polygon points="481.2,710.2 538.6,765 487,699.6 	"/>
	<polygon points="688.6,722.3 691.7,775.8 700.8,715.8 	"/>
	<polygon points="700.8,715.8 775,738.1 704.8,696.7 	"/>
	<polygon points="677.2,717.2 635.4,763.3 688.6,722.3 	"/>
	<polygon points="691.7,775.8 744.5,765 700.8,715.8 	"/>
	<polygon points="744.5,765 775,738.1 700.8,715.8 	"/>
	<polygon points="674,655.9 597.6,676.6 674,694.4 	"/>
	<polygon points="604.8,731.5 635.4,763.3 677.2,717.2 	"/>
	<polygon points="597.6,655.9 597.6,676.6 674,655.9 	"/>
	<polygon points="674,694.4 604.8,731.5 677.2,717.2 	"/>
	<polygon points="597.6,676.6 604.8,731.5 674,694.4 	"/>
	<polygon points="635.4,763.3 691.7,775.8 688.6,722.3 	"/>
	<polygon points="776.1,548.7 776.1,536.2 699.7,548.7 	"/>
	<polygon points="676.3,548.1 618.1,602 699.5,567.4 	"/>
	<polygon points="672,524.3 595,535.2 676.3,548.1 	"/>
	<polygon points="604.3,482.1 595,535.2 672,524.3 	"/>
	<polygon points="595,535.2 601.6,576.6 676.3,548.1 	"/>
	<polygon points="699.5,567.4 618.1,602 768.7,620.9 	"/>
	<polygon points="697.2,660.2 704.8,696.7 782.9,688.3 	"/>
	<polygon points="618.1,602 658.7,631.5 768.7,620.9 	"/>
	<polygon points="704.8,696.7 775,738.1 782.9,688.3 	"/>
	<polygon points="768.7,620.9 697.2,660.2 782.9,688.3 	"/>
	<polygon points="658.7,631.5 697.2,660.2 768.7,620.9 	"/>
	<polygon points="601.6,576.6 618.1,602 676.3,548.1 	"/>
	<polygon points="738.9,456.7 684.3,446.3 696.8,504.3 	"/>
	<polygon points="768.8,482.7 738.9,456.7 696.8,504.3 	"/>
	<polygon points="699.7,525.2 768.8,482.7 696.8,504.3 	"/>
	<polygon points="675.8,505.9 604.3,482.1 672,524.3 	"/>
	<polygon points="699.7,548.7 768.8,482.7 699.7,525.2 	"/>
	<polygon points="776.1,536.2 768.8,482.7 699.7,548.7 	"/>
	<polygon points="696.8,504.3 684.3,446.3 687,499.8 	"/>
	<polygon points="687,499.8 634.3,455.8 675.8,505.9 	"/>
	<polygon points="634.3,455.8 604.3,482.1 675.8,505.9 	"/>
	<polygon points="684.3,446.3 634.3,455.8 687,499.8 	"/>
</g>
</svg>
