<?xml version="1.0" encoding="utf-8"?>
<!-- Generator: Adobe Illustrator 22.0.1, SVG Export Plug-In . SVG Version: 6.00 Build 0)  -->
<svg version="1.1" id="Слой_1" xmlns="http://www.w3.org/2000/svg" xmlns:xlink="http://www.w3.org/1999/xlink" x="0px" y="0px"
	 viewBox="0 0 800 600" style="enable-background:new 0 0 800 600;" xml:space="preserve">
<g>
	<polygon points="18.7,288.3 24.3,296.7 37.3,281.2 	"/>
	<polygon points="37.3,281.2 24.3,296.7 43,285.5 	"/>
	<polygon points="35.2,274.9 18.7,288.3 37.3,281.2 	"/>
	<polygon points="43,285.5 32.3,302.1 50.9,288.7 	"/>
	<polygon points="24.3,296.7 32.3,302.1 43,285.5 	"/>
	<polygon points="16.6,275.9 18.7,288.3 35.2,274.9 	"/>
	<polygon points="36.7,247.7 25.7,254.6 39.4,265.2 	"/>
	<polygon points="25.7,254.6 18.9,264.5 36.3,269.4 	"/>
	<polygon points="18.9,264.5 16.6,275.9 35.2,274.9 	"/>
	<polygon points="36.3,269.4 18.9,264.5 35.2,274.9 	"/>
	<polygon points="39.4,265.2 25.7,254.6 36.3,269.4 	"/>
	<polygon points="63.9,316 66.1,322.9 82.7,308.7 	"/>
	<polygon points="77.1,300.8 63.9,316 82.7,308.7 	"/>
	<polygon points="32.3,302.1 41.3,305.6 50.9,288.7 	"/>
	<polygon points="58.3,311.5 63.9,316 77.1,300.8 	"/>
	<polygon points="66.1,322.9 84.8,320.1 82.7,308.7 	"/>
	<polygon points="44.7,262.4 36.7,247.7 39.4,265.2 	"/>
	<polygon points="50.9,288.7 41.3,305.6 60,291.7 	"/>
	<polygon points="69.2,295.4 58.3,311.5 77.1,300.8 	"/>
	<polygon points="41.3,305.6 50.4,308.4 60,291.7 	"/>
	<polygon points="60,291.7 50.4,308.4 69.2,295.4 	"/>
	<polygon points="50.4,308.4 58.3,311.5 69.2,295.4 	"/>
	<polygon points="47.6,354.9 63.4,352.2 48.2,338.5 	"/>
	<polygon points="31.7,333.6 27.9,351 38.6,337 	"/>
	<polygon points="27.9,351 37.5,353.9 38.6,337 	"/>
	<polygon points="63.4,352.2 75.1,344.7 61.4,334.5 	"/>
	<polygon points="26.5,330.3 19.3,346.6 31.7,333.6 	"/>
	<polygon points="37.5,353.9 47.6,354.9 38.6,337 	"/>
	<polygon points="48.2,338.5 63.4,352.2 61.4,334.5 	"/>
	<polygon points="19.3,346.6 27.9,351 31.7,333.6 	"/>
	<polygon points="22.5,328.7 19.3,346.6 26.5,330.3 	"/>
	<polygon points="20,329.4 19.3,346.6 22.5,328.7 	"/>
	<polygon points="51.9,261.4 36.7,247.7 44.7,262.4 	"/>
	<polygon points="12.2,340.8 19.3,346.6 18.1,331.2 	"/>
	<polygon points="18.1,331.2 19.3,346.6 20,329.4 	"/>
	<polygon points="38.6,337 47.6,354.9 48.2,338.5 	"/>
	<polygon points="73.6,268.8 69.2,248.1 70.2,267.7 	"/>
	<polygon points="77.9,265.8 69.2,248.1 76,268.1 	"/>
	<polygon points="59.9,262.5 69.2,248.1 51.9,261.4 	"/>
	<polygon points="76,268.1 69.2,248.1 73.6,268.8 	"/>
	<polygon points="65.8,265.1 69.2,248.1 59.9,262.5 	"/>
	<polygon points="75.1,344.7 82.4,333.7 61.4,334.5 	"/>
	<polygon points="70.2,267.7 69.2,248.1 65.8,265.1 	"/>
	<polygon points="69.2,248.1 51.7,245.1 51.9,261.4 	"/>
	<polygon points="51.7,245.1 36.7,247.7 51.9,261.4 	"/>
	<polygon points="61.4,334.5 82.4,333.7 66.1,322.9 	"/>
	<polygon points="82.9,256.4 69.2,248.1 77.9,265.8 	"/>
	<polygon points="82.4,333.7 84.8,320.1 66.1,322.9 	"/>
	<polygon points="124.9,262.7 144.9,262.7 151.1,254.5 	"/>
	<polygon points="177.2,246.3 92.5,246.3 124.9,262.7  	"/>
	<polygon points="151.1,254.5 144.9,262.7 177.2,262.7 	"/>
	<polygon points="177.2,262.7 177.2,246.3 151.1,254.5 	"/>
	<polygon points="92.5,262.7 124.9,262.7 92.5,246.3 	"/>
	<polygon points="124.9,262.7 124.9,353.7 134.9,308.2 	"/>
	<polygon points="124.9,353.7 144.9,353.7 134.9,308.2 	"/>
	<polygon points="144.9,353.7 144.9,262.7 134.9,308.2 	"/>
	<polygon points="134.9,308.2 144.9,262.7 124.9,262.7 	"/>
	<polygon points="203.4,313.1 198.2,327.3 223.1,320.2 	"/>
	<polygon points="190.2,349.2 198.2,327.3 185.8,333.4 	"/>
	<polygon points="187.9,352.3 190.2,349.2 185.8,333.4 	"/>
	<polygon points="198.2,327.3 242.7,327.3 223.1,320.2 	"/>
	<polygon points="185.8,333.4 198.2,327.3 203.4,313.1 	"/>
	<polygon points="223.1,320.2 242.7,327.3 237.6,313.1 	"/>
	<polygon points="237.6,313.1 242.7,327.3 255.3,333.4 	"/>
	<polygon points="234.2,279.7 272.9,353.7 230.7,246.3 	"/>
	<polygon points="183.7,353.7 187.9,352.3 185.8,333.4 	"/>
	<polygon points="257.4,353.7 272.9,353.7 255.3,333.4 	"/>
	<polygon points="242.7,327.3 250.8,349.2 255.3,333.4 	"/>
	<polygon points="253.2,352.4 257.4,353.7 255.3,333.4 	"/>
	<polygon points="250.8,349.2 253.2,352.4 255.3,333.4 	"/>
	<polygon points="237.6,313.1  272.9,353.7 234.2,279.7 	"/>
	<polygon points="224.5,277.4 234.2,279.7 222.5,271.8 	"/>
	<polygon points="237.6,313.1 234.2,279.7 224.5,277.4 	"/>
	<polygon points="234.2,279.7 230.7,246.3 220.5,264.7 	"/>
	<polygon points="222.5,271.8 234.2,279.7 220.5,264.7 	"/>
	<polygon points="223.1,320.2 237.6,313.1 203.4,313.1 	"/>
	<polygon points=" 203.3,289.2 203.4,313.1 216.4,277.6 	"/>
	<polygon points="216.4,277.6 218.5,271.8 203.1,264.7  	"/>
	<polygon points="203.1,264.7 168.1,353.7 203.3,289.2 	"/>
	<polygon points="230.7,246.3 210.4,246.3 220.5,264.7 	"/>
	<polygon points="203.4,313.1 203.3,289.2 168.1,353.7  	"/>
	<polygon points="203.4,288.9 216.4,277.6 203.1,264.7  	"/>
	<polygon points="168.1,353.7 183.7,353.7 185.8,333.4 	"/>
	<polygon points="220.5,264.7 210.4,246.3 218.5,271.8 	"/>
	<polygon points="210.4,246.3 203.1,264.7 218.5,271.8 	"/>
	<polygon points="365.8,300 357,246.3 357,311.6 	"/>
	<polygon points="357,311.6 357.1,316.3 365.8,300 	"/>
	<polygon points="365.8,300 357.5,321.4 374.6,353.7 	"/>
	<polygon points="364.3,353.7 374.6,353.7 357.5,321.4 	"/>
	<polygon points="357.1,316.3 357.5,321.4 365.8,300 	"/>
	<polygon points="299.7,247.8 301.2,278.7 357.5,321.4 	"/>
	<polygon points="360.3,352.9 364.3,353.7 357.5,321.4 	"/>
	<polygon points="374.6,353.7 374.6,246.3 365.8,300 	"/>
	<polygon points="301.2,278.7 357.3,350.3 357.5,321.4 	"/>
	<polygon points="357.3,350.3 360.3,352.9 357.5,321.4 	"/>
	<polygon points="301.6,353.7 301.6,287.7 292.8,320.7 	"/>
	<polygon points=" 284,246.3 284,353.7 292.8,320.7 	"/>
	<polygon points="296.7,246.4  284,246.3 288.4,283.5 	"/>
	<polygon points="298.3,246.9 296.7,246.4 288.4,283.5 	"/>
	<polygon points="284,353.7 301.6,353.7 292.8,320.7 	"/>
	<polygon points="365.8,300 374.6,246.3 357,246.3 	"/>
	<polygon points="298.3,246.9 301.2,278.7 299.7,247.8 	"/>
	<polygon points="288.4,283.5 301.2,278.7 298.3,246.9 	"/>
	<polygon points="301.6,287.7 301.2,278.7 288.4,283.5 	"/>
	<polygon points="292.8,320.7 301.6,287.7 288.4,283.5 	"/>
	<polygon points=" 408.5,300 418.5,246.3 398.5,246.3 	"/>
	<polygon points="408.5,300 418.5,353.7 418.5,246.3 	"/>
	<polygon points="398.5,246.3 398.5,353.7 408.5,300 	"/>
	<polygon points="398.5,353.7 418.5,353.7 408.5,300 	"/>
	<polygon points="457,274.9 440.5,288.3 459.1,281.2 	"/>
	<polygon points="458,269.4 440.7,264.5 457,274.9 	"/>
	<polygon points="446.1,296.7 454,302.1 464.7,285.5 	"/>
	<polygon points="438.4,275.9 440.5,288.3 457,274.9 	"/>
	<polygon points="440.5,288.3 446.1,296.7 459.1,281.2 	"/>
	<polygon points="459.1,281.2 446.1,296.7 464.7,285.5 	"/>
	<polygon points="440.7,264.5 438.4,275.9 457,274.9 	"/>
	<polygon points="447.5,254.6 440.7,264.5 458,269.4 	"/>
	<polygon points="473.5,245.1 458.5,247.7 473.7,261.4 	"/>
	<polygon points="473.7,261.4 458.5,247.7 466.4,262.4 	"/>
	<polygon points="458.5,247.7 447.5,254.6 461.2,265.2 	"/>
	<polygon points="461.2,265.2 447.5,254.6 458,269.4 	"/>
	<polygon points="466.4,262.4 458.5,247.7 461.2,265.2 	"/>
	<polygon points="498.9,300.8 485.7,316 504.5,308.7 	"/>
	<polygon points="490.9,295.4 485.7,316 498.9,300.8 	"/>
	<polygon points="487.8,322.9 506.6,320.1 504.5,308.7 	"/>
	<polygon points="485.7,316 487.8,322.9 504.5,308.7 	"/>
	<polygon points="480.1,311.5 485.7,316 490.9,295.4 	"/>
	<polygon points="463.1,305.6 472.2,308.4 472.7,288.7 	"/>
	<polygon points="464.7,285.5 463.1,305.6 472.7,288.7 	"/>
	<polygon points="454,302.1 463.1,305.6 464.7,285.5 	"/>
	<polygon points="481.8,291.7 480.1,311.5 490.9,295.4 	"/>
	<polygon points="472.2,308.4 480.1,311.5 481.8,291.7 	"/>
	<polygon points="472.7,288.7 472.2,308.4 481.8,291.7 	"/>
	<polygon points="434,340.8 441.1,346.6 439.8,331.2 	"/>
	<polygon points="441.1,346.6 449.7,351 453.4,333.6 	"/>
	<polygon points="459.2,353.9 469.3,354.9 460.4,337 	"/>
	<polygon points="453.4,333.6 449.7,351 460.4,337 	"/>
	<polygon points="449.7,351 459.2,353.9 460.4,337 	"/>
	<polygon points="469.3,354.9 485.1,352.2 469.9,338.5 	"/>
	<polygon points="460.4,337 469.3,354.9 469.9,338.5 	"/>
	<polygon points="469.9,338.5 485.1,352.2 483.1,334.5 	"/>
	<polygon points="481.7,262.5 473.5,245.1 473.7,261.4 	"/>
	<polygon points="448.3,330.3 441.1,346.6 453.4,333.6 	"/>
	<polygon points="444.3,328.7 441.1,346.6 448.3,330.3 	"/>
	<polygon points="439.8,331.2 441.1,346.6 441.8,329.4 	"/>
	<polygon points="441.8,329.4 441.1,346.6 444.3,328.7 	"/>
	<polygon points="491,248.1 473.5,245.1 481.7,262.5 	"/>
	<polygon points="497.8,268.1 491,248.1 495.3,268.8 	"/>
	<polygon points="485.1,352.2 496.8,344.7 483.1,334.5 	"/>
	<polygon points="499.7,265.8 491,248.1 497.8,268.1 	"/>
	<polygon points="491.9,267.7 491,248.1 487.6,265.1 	"/>
	<polygon points="487.6,265.1 491,248.1 481.7,262.5 	"/>
	<polygon points="495.3,268.8 491,248.1 491.9,267.7 	"/>
	<polygon points="504.7,256.4 491,248.1 499.7,265.8 	"/>
	<polygon points="496.8,344.7 504.1,333.7 483.1,334.5 	"/>
	<polygon points="483.1,334.5 504.1,333.7 487.8,322.9 	"/>
	<polygon points="504.1,333.7 506.6,320.1 487.8,322.9 	"/>
	<polygon points="524,353.7 586.9,353.7 565.4,345.5 	"/>
	<polygon points="544,337.2 524,353.7 565.4,345.5 	"/>
	<polygon points="586.9,353.7 586.9,337.2 565.4,345.5 	"/>
	<polygon points="565.4,345.5 586.9,337.2 544,337.2 	"/>
	<polygon points="544,337.2 544,246.3 534,291.8 	"/>
	<polygon points="544,246.3 524,246.3 534,291.8 	"/>
	<polygon points="534,291.8 524,353.7 544,337.2 	"/>
	<polygon points="524,246.3 524,353.7 534,291.8 	"/>
	<polygon points="623.7,313.1 618.5,327.3 657.9,313.1 	"/>
	<polygon points="608.2,352.3 610.5,349.2 613.9,333.4 	"/>
	<polygon points="610.5,349.2 618.5,327.3 613.9,333.4 	"/>
	<polygon points="613.9,333.4 618.5,327.3 623.7,313.1 	"/>
	<polygon points="657.9,313.1 663,327.3 678.1,340.5 	"/>
	<polygon points="618.5,327.3 663,327.3 657.9,313.1 	"/>
	<polygon points="677.7,353.7 693.2,353.7 678.1,340.5 	"/>
	<polygon points="663,327.3 671,349.2 678.1,340.5 	"/>
	<polygon points="678.1,340.5 693.2,353.7 651,246.3 	"/>
	<polygon points="673.5,352.4 677.7,353.7 678.1,340.5 	"/>
	<polygon points="671,349.2 673.5,352.4 678.1,340.5 	"/>
	<polygon points="644.8,277.4 651,246.3 642.8,271.8 	"/>
	<polygon points="642.8,271.8 651,246.3 640.7,264.7 	"/>
	<polygon points="651,246.3 630.6,246.3 640.7,264.7 	"/>
	<polygon points="657.9,313.1 651,246.3 644.8,277.4 	"/>
	<polygon points="678.1,340.5 651,246.3 657.9,313.1 	"/>
	<polygon points="640.7,264.7 630.6,246.3 638.7,271.8 	"/>
	<polygon points="623.7,313.1 588.4,353.7 604,353.7 	"/>
	<polygon points="636.7,277.6 588.4,353.7 623.7,313.1 	"/>
	<polygon points="604,353.7 608.2,352.3 613.9,333.4 	"/>
	<polygon points="638.7,271.8 630.6,246.3 636.7,277.6 	"/>
	<polygon points="630.6,246.3 588.4,353.7 636.7,277.6 	"/>
	<polygon points="771.7,246.3 767.4,247.7 763.8,281.3 	"/>
	<polygon points="735.7,331.3 744.4,353.7 737.6,323.4 	"/>
	<polygon points="737.6,323.4 744.4,353.7 739.9,316.3 	"/>
	<polygon points="787.8,246.3 771.7,246.3 763.8,281.3 	"/>
	<polygon points=" 739.9,316.3 744.4,353.7 787.8,246.3 	"/>
	<polygon points="767.4,247.7 765.1,250.8 763.8,281.3 	"/>
	<polygon points="765.1,250.8 739.9,316.3 763.8,281.3 	"/>
	<polygon points="731.1,316.3 726.4,353.7 733.5,323.4 	"/>
	<polygon points="703.3,247.6 699,246.3 707,281.3 	"/>
	<polygon points="705.7,250.8 703.3,247.6 707,281.3 	"/>
	<polygon points="731.1,316.3 705.7,250.8 707,281.3 	"/>
	<polygon points="726.4,353.7 744.4,353.7 735.7,331.3 	"/>
	<polygon points="733.5,323.4 726.4,353.7 735.7,331.3 	"/>
	<polygon points="699,246.3 683,246.3 707,281.3 	"/>
	<polygon points="683,246.3 726.4,353.7 731.1,316.3 	"/>
</g>
</svg>
