<?xml version="1.0" encoding="utf-8"?>
<!-- Generator: Adobe Illustrator 22.0.1, SVG Export Plug-In . SVG Version: 6.00 Build 0)  -->
<svg version="1.1" id="Слой_1" xmlns="http://www.w3.org/2000/svg" xmlns:xlink="http://www.w3.org/1999/xlink" x="0px" y="0px"
	 viewBox="0 0 1152 700" style="enable-background:new 0 0 1152 700;" xml:space="preserve">
<g>
	<polygon points="62.6,334.3 70.2,345.5 87.7,324.7 	"/>
	<polygon points="87.7,324.7 70.2,345.5 95.3,330.5 	"/>
	<polygon points="84.9,316.2 62.6,334.3 87.7,324.7 	"/>
	<polygon points="95.3,330.5 80.9,352.8 106,334.8 	"/>
	<polygon points="70.2,345.5 80.9,352.8 95.3,330.5 	"/>
	<polygon points="59.8,317.6 62.6,334.3 84.9,316.2 	"/>
	<polygon points="86.9,279.6 72.1,288.9 90.5,303.1 	"/>
	<polygon points="72.1,288.9 62.9,302.2 86.3,308.9 	"/>
	<polygon points="62.9,302.2 59.8,317.6 84.9,316.2 	"/>
	<polygon points="86.3,308.9 62.9,302.2 84.9,316.2 	"/>
	<polygon points="90.5,303.1 72.1,288.9 86.3,308.9 	"/>
	<polygon points="123.5,371.5 126.4,380.8 148.8,361.7 	"/>
	<polygon points="141.3,351.1 123.5,371.5 148.8,361.7 	"/>
	<polygon points="80.9,352.8 93.1,357.6 106,334.8 	"/>
	<polygon points="116,365.4 123.5,371.5 141.3,351.1 	"/>
	<polygon points="126.4,380.8 151.7,377 148.8,361.7 	"/>
	<polygon points="97.6,299.4 86.9,279.6 90.5,303.1 	"/>
	<polygon points="106,334.8 93.1,357.6 118.3,338.9 	"/>
	<polygon points="130.6,343.9 116,365.4 141.3,351.1 	"/>
	<polygon points="93.1,357.6 105.3,361.3 118.3,338.9 	"/>
	<polygon points="118.3,338.9 105.3,361.3 130.6,343.9 	"/>
	<polygon points="105.3,361.3 116,365.4 130.6,343.9 	"/>
	<polygon points="101.5,423.9 122.8,420.3 102.3,401.9 	"/>
	<polygon points="80.1,395.3 75,418.7 89.4,399.9 	"/>
	<polygon points="75,418.7 87.9,422.6 89.4,399.9 	"/>
	<polygon points="122.8,420.3 138.5,410.3 120.1,396.4 	"/>
	<polygon points="73.2,390.8 63.5,412.7 80.1,395.3 	"/>
	<polygon points="87.9,422.6 101.5,423.9 89.4,399.9 	"/>
	<polygon points="102.3,401.9 122.8,420.3 120.1,396.4 	"/>
	<polygon points="63.5,412.7 75,418.7 80.1,395.3 	"/>
	<polygon points="67.8,388.7 63.5,412.7 73.2,390.8 	"/>
	<polygon points="64.4,389.6 63.5,412.7 67.8,388.7 	"/>
	<polygon points="107.4,298 86.9,279.6 97.6,299.4 	"/>
	<polygon points="53.9,404.9 63.5,412.7 61.8,392 	"/>
	<polygon points="61.8,392 63.5,412.7 64.4,389.6 	"/>
	<polygon points="89.4,399.9 101.5,423.9 102.3,401.9 	"/>
	<polygon points="136.5,308 130.7,280.1 131.9,306.4 	"/>
	<polygon points="142.4,304 130.7,280.1 139.8,307.1 	"/>
	<polygon points="118.1,299.6 130.7,280.1 107.4,298 	"/>
	<polygon points="139.8,307.1 130.7,280.1 136.5,308 	"/>
	<polygon points="126.1,303 130.7,280.1 118.1,299.6 	"/>
	<polygon points="138.5,410.3 148.3,395.4 120.1,396.4 	"/>
	<polygon points="131.9,306.4 130.7,280.1 126.1,303 	"/>
	<polygon points="130.7,280.1 107.1,276.1 107.4,298 	"/>
	<polygon points="107.1,276.1 86.9,279.6 107.4,298 	"/>
	<polygon points="120.1,396.4 148.3,395.4 126.4,380.8 	"/>
	<polygon points="149.1,291.3 130.7,280.1 142.4,304 	"/>
	<polygon points="148.3,395.4 151.7,377 126.4,380.8 	"/>
	<polygon points="205.6,299.8 232.5,299.8 240.8,288.8 	"/>
	<polygon points="276.1,277.7 162,277.7 205.6,299.8 240.8,288.8 	"/>
	<polygon points="240.8,288.8 232.5,299.8 276.1,299.8 	"/>
	<polygon points="276.1,299.8 276.1,277.7 240.8,288.8 	"/>
	<polygon points="162,299.8 205.6,299.8 162,277.7 	"/>
	<polygon points="205.6,299.8 205.6,422.3 219,361.1 	"/>
	<polygon points="205.6,422.3 232.5,422.3 219,361.1 	"/>
	<polygon points="232.5,422.3 232.5,299.8 219,361.1 	"/>
	<polygon points="219,361.1 232.5,299.8 205.6,299.8 	"/>
	<polygon points="311.4,367.7 304.4,386.7 337.8,377.2 	"/>
	<polygon points="293.6,416.2 304.4,386.7 287.6,395 	"/>
	<polygon points="290.5,420.4 293.6,416.2 287.6,395 	"/>
	<polygon points="304.4,386.7 364.3,386.7 337.8,377.2 	"/>
	<polygon points="287.6,395 304.4,386.7 311.4,367.7 	"/>
	<polygon points="337.8,377.2 364.3,386.7 357.4,367.7 	"/>
	<polygon points="357.4,367.7 364.3,386.7 381.1,395 	"/>
	<polygon points="352.7,322.7 404.9,422.3 348.1,277.7 	"/>
	<polygon points="284.8,422.3 290.5,420.4 287.6,395 	"/>
	<polygon points="384.1,422.3 404.9,422.3 381.1,395 	"/>
	<polygon points="364.3,386.7 375.1,416.2 381.1,395 	"/>
	<polygon points="378.4,420.6 384.1,422.3 381.1,395 	"/>
	<polygon points="375.1,416.2 378.4,420.6 381.1,395 	"/>
	<polygon points="357.4,367.7 381.1,395 404.9,422.3 352.7,322.7 	"/>
	<polygon points="339.8,319.6 352.7,322.7 337.1,312 	"/>
	<polygon points="357.4,367.7 352.7,322.7 339.8,319.6 	"/>
	<polygon points="352.7,322.7 348.1,277.7 334.3,302.5 	"/>
	<polygon points="337.1,312 352.7,322.7 334.3,302.5 	"/>
	<polygon points="337.8,377.2 357.4,367.7 311.4,367.7 	"/>
	<polygon points="311.4,335.1 311.1,335.5 311.4,367.7 328.9,319.8 	"/>
	<polygon points="328.9,319.8 331.6,312.1 310.9,302.5 310.9,302.5 	"/>
	<polygon points="310.9,302.5 263.8,422.3 311.1,335.5 	"/>
	<polygon points="348.1,277.7 320.7,277.7 334.3,302.5 	"/>
	<polygon points="311.4,367.7 311.1,335.5 263.8,422.3 287.6,395 	"/>
	<polygon points="311.4,335.1 328.9,319.8 310.9,302.5 310.9,302.5 311.1,335.5 	"/>
	<polygon points="263.8,422.3 284.8,422.3 287.6,395 	"/>
	<polygon points="334.3,302.5 320.7,277.7 331.6,312.1 	"/>
	<polygon points="320.7,277.7 310.9,302.5 331.6,312.1 	"/>
	<polygon points="529.9,350 518.1,277.7 518.1,365.6 529.9,350.1 	"/>
	<polygon points="518.1,365.6 518.3,371.9 529.9,350.1 	"/>
	<polygon points="529.9,350.1 518.8,378.8 541.8,422.3 529.9,350 	"/>
	<polygon points="528,422.3 541.8,422.3 518.8,378.8 	"/>
	<polygon points="518.3,371.9 518.8,378.8 529.9,350.1 	"/>
	<polygon points="443,282 441,279.8 443,321.3 518.8,378.8 	"/>
	<polygon points="522.6,421.3 528,422.3 518.8,378.8 	"/>
	<polygon points="541.8,422.3 541.8,277.7 529.9,350 	"/>
	<polygon points="443,321.3 518.5,417.7 518.8,378.8 	"/>
	<polygon points="518.5,417.7 522.6,421.3 518.8,378.8 	"/>
	<polygon points="443.6,422.3 443.6,333.5 431.7,377.9 	"/>
	<polygon points="425.8,327.8 419.9,277.7 419.9,422.3 431.7,377.9 	"/>
	<polygon points="436.9,277.9 434,277.7 419.9,277.7 425.8,327.8 	"/>
	<polygon points="439.1,278.4 436.9,277.9 425.8,327.8 	"/>
	<polygon points="419.9,422.3 443.6,422.3 431.7,377.9 	"/>
	<polygon points="529.9,350 541.8,277.7 518.1,277.7 	"/>
	<polygon points="439.1,278.4 443,321.3 441,279.8 	"/>
	<polygon points="425.8,327.8 443,321.3 439.1,278.4 	"/>
	<polygon points="443.6,333.5 443,321.3 425.8,327.8 	"/>
	<polygon points="431.7,377.9 443.6,333.5 425.8,327.8 	"/>
	<polygon points="587.5,350.1 587.5,350.1 600.9,277.7 573.9,277.7 	"/>
	<polygon points="587.5,350.1 600.9,422.3 600.9,277.7 587.5,350.1 	"/>
	<polygon points="573.9,277.7 573.9,422.3 587.5,350.1 	"/>
	<polygon points="573.9,422.3 600.9,422.3 587.5,350.1 	"/>
	<polygon points="652.7,316.2 630.5,334.3 655.6,324.7 	"/>
	<polygon points="654.1,308.9 630.8,302.2 652.7,316.2 	"/>
	<polygon points="638,345.5 648.7,352.8 663.1,330.5 	"/>
	<polygon points="627.6,317.6 630.5,334.3 652.7,316.2 	"/>
	<polygon points="630.5,334.3 638,345.5 655.6,324.7 	"/>
	<polygon points="655.6,324.7 638,345.5 663.1,330.5 	"/>
	<polygon points="630.8,302.2 627.6,317.6 652.7,316.2 	"/>
	<polygon points="639.9,288.9 630.8,302.2 654.1,308.9 	"/>
	<polygon points="674.9,276.1 654.7,279.6 675.2,298 	"/>
	<polygon points="675.2,298 654.7,279.6 665.4,299.4 	"/>
	<polygon points="654.7,279.6 639.9,288.9 658.4,303.1 	"/>
	<polygon points="658.4,303.1 639.9,288.9 654.1,308.9 	"/>
	<polygon points="665.4,299.4 654.7,279.6 658.4,303.1 	"/>
	<polygon points="709.1,351.1 691.4,371.5 716.7,361.7 	"/>
	<polygon points="698.4,343.9 691.4,371.5 709.1,351.1 	"/>
	<polygon points="694.2,380.8 719.5,377 716.7,361.7 	"/>
	<polygon points="691.4,371.5 694.2,380.8 716.7,361.7 	"/>
	<polygon points="683.8,365.4 691.4,371.5 698.4,343.9 	"/>
	<polygon points="660.9,357.6 673.1,361.3 673.8,334.8 	"/>
	<polygon points="663.1,330.5 660.9,357.6 673.8,334.8 	"/>
	<polygon points="648.7,352.8 660.9,357.6 663.1,330.5 	"/>
	<polygon points="686.1,338.9 683.8,365.4 698.4,343.9 	"/>
	<polygon points="673.1,361.3 683.8,365.4 686.1,338.9 	"/>
	<polygon points="673.8,334.8 673.1,361.3 686.1,338.9 	"/>
	<polygon points="621.7,404.9 631.3,412.7 629.6,392 	"/>
	<polygon points="631.3,412.7 642.9,418.7 647.9,395.3 	"/>
	<polygon points="655.7,422.6 669.3,423.9 657.3,399.9 	"/>
	<polygon points="647.9,395.3 642.9,418.7 657.3,399.9 	"/>
	<polygon points="642.9,418.7 655.7,422.6 657.3,399.9 	"/>
	<polygon points="669.3,423.9 690.6,420.3 670.1,401.9 	"/>
	<polygon points="657.3,399.9 669.3,423.9 670.1,401.9 	"/>
	<polygon points="670.1,401.9 690.6,420.3 687.9,396.4 	"/>
	<polygon points="686,299.6 674.9,276.1 675.2,298 	"/>
	<polygon points="641,390.8 631.3,412.7 647.9,395.3 	"/>
	<polygon points="635.6,388.7 631.3,412.7 641,390.8 	"/>
	<polygon points="629.6,392 631.3,412.7 632.2,389.6 	"/>
	<polygon points="632.2,389.6 631.3,412.7 635.6,388.7 	"/>
	<polygon points="698.5,280.1 674.9,276.1 686,299.6 	"/>
	<polygon points="707.7,307.1 698.5,280.1 704.3,308 	"/>
	<polygon points="690.6,420.3 706.4,410.3 687.9,396.4 	"/>
	<polygon points="710.2,304 698.5,280.1 707.7,307.1 	"/>
	<polygon points="699.8,306.4 698.5,280.1 693.9,303 	"/>
	<polygon points="693.9,303 698.5,280.1 686,299.6 	"/>
	<polygon points="704.3,308 698.5,280.1 699.8,306.4 	"/>
	<polygon points="716.9,291.3 698.5,280.1 710.2,304 	"/>
	<polygon points="706.4,410.3 716.2,395.4 687.9,396.4 	"/>
	<polygon points="687.9,396.4 716.2,395.4 694.2,380.8 	"/>
	<polygon points="716.2,395.4 719.5,377 694.2,380.8 	"/>
	<polygon points="742.9,422.3 827.6,422.3 798.7,411.2 	"/>
	<polygon points="769.8,400.1 742.9,422.3 798.7,411.2 	"/>
	<polygon points="827.6,422.3 827.6,400.1 798.7,411.2 	"/>
	<polygon points="798.7,411.2 827.6,400.1 769.8,400.1 	"/>
	<polygon points="769.8,400.1 769.8,277.7 756.4,338.9 	"/>
	<polygon points="769.8,277.7 742.9,277.7 756.4,338.9 	"/>
	<polygon points="756.4,338.9 742.9,422.3 769.8,400.1 	"/>
	<polygon points="742.9,277.7 742.9,422.3 756.4,338.9 	"/>
	<polygon points="877.2,367.7 870.2,386.7 923.2,367.7 	"/>
	<polygon points="856.3,420.4 859.4,416.2 863.9,395 	"/>
	<polygon points="859.4,416.2 870.2,386.7 863.9,395 	"/>
	<polygon points="863.9,395 870.2,386.7 877.2,367.7 	"/>
	<polygon points="923.2,367.7 930.1,386.7 950.4,404.5 	"/>
	<polygon points="870.2,386.7 930.1,386.7 923.2,367.7 	"/>
	<polygon points="949.9,422.3 970.7,422.3 950.4,404.5 	"/>
	<polygon points="930.1,386.7 940.9,416.2 950.4,404.5 	"/>
	<polygon points="950.4,404.5 970.7,422.3 913.9,277.7 	"/>
	<polygon points="944.2,420.6 949.9,422.3 950.4,404.5 	"/>
	<polygon points="940.9,416.2 944.2,420.6 950.4,404.5 	"/>
	<polygon points="905.6,319.6 913.9,277.7 902.9,312 	"/>
	<polygon points="902.9,312 913.9,277.7 900.1,302.5 	"/>
	<polygon points="913.9,277.7 886.5,277.7 900.1,302.5 	"/>
	<polygon points="923.2,367.7 913.9,277.7 905.6,319.6 	"/>
	<polygon points="950.4,404.5 913.9,277.7 923.2,367.7 	"/>
	<polygon points="900.1,302.5 886.5,277.7 897.4,312.1 	"/>
	<polygon points="877.2,367.7 829.6,422.3 850.6,422.3 863.9,395 	"/>
	<polygon points="894.7,319.8 829.6,422.3 877.2,367.7 	"/>
	<polygon points="850.6,422.3 856.3,420.4 863.9,395 	"/>
	<polygon points="897.4,312.1 886.5,277.7 894.7,319.8 	"/>
	<polygon points="886.5,277.7 829.6,422.3 894.7,319.8 	"/>
	<polygon points="1076.4,277.7 1070.7,279.6 1065.9,324.9 	"/>
	<polygon points="1027.9,392.2 1039.7,422.3 1030.5,381.4 	"/>
	<polygon points="1030.5,381.4 1039.7,422.3 1033.6,372 	"/>
	<polygon points="1098.1,277.7 1076.4,277.7 1065.9,324.9 	"/>
	<polygon points="1065.9,324.9 1033.6,372 1039.7,422.3 1098.1,277.7 	"/>
	<polygon points="1070.7,279.6 1067.5,283.8 1065.9,324.9 	"/>
	<polygon points="1067.5,283.8 1033.6,372 1065.9,324.9 	"/>
	<polygon points="1021.7,372 1015.4,422.3 1025,381.4 	"/>
	<polygon points="984.3,279.4 978.6,277.7 989.4,324.9 	"/>
	<polygon points="987.6,283.8 984.3,279.4 989.4,324.9 	"/>
	<polygon points="1021.7,372 987.6,283.8 989.4,324.9 	"/>
	<polygon points="1015.4,422.3 1039.7,422.3 1027.9,392.2 	"/>
	<polygon points="1025,381.4 1015.4,422.3 1027.9,392.2 	"/>
	<polygon points="978.6,277.7 957,277.7 989.4,324.9 	"/>
	<polygon points="989.4,324.9 957,277.7 1015.4,422.3 1021.7,372 	"/>
</g>
</svg>
