<?xml version="1.0" encoding="utf-8"?>
<!-- Generator: Adobe Illustrator 22.0.1, SVG Export Plug-In . SVG Version: 6.00 Build 0)  -->
<svg version="1.1" id="Слой_1" xmlns="http://www.w3.org/2000/svg" xmlns:xlink="http://www.w3.org/1999/xlink" x="0px" y="0px"
	 viewBox="0 0 800 600" style="enable-background:new 0 0 800 600;" xml:space="preserve">
<style type="text/css">
	.st0{fill:none;}
</style>
<g>
	<polygon points="80.1,252.6 81.7,246.8 60.6,254.8 	"/>
	<polygon points="60.6,254.8 81.7,240 16.9,254.8 	"/>
	<polygon points="16.9,254.8 81.7,240 16.9,240 	"/>
	<polygon points="35.2,324.9 80.1,252.6 60.6,254.8 	"/>
	<polygon points="81.7,246.8 81.7,240 60.6,254.8 	"/>
	<polygon points="80.6,339.8 80.6,324.9 14,339.8 	"/>
	<polygon points="14,339.8 35.2,324.9 14,332.5 	"/>
	<polygon points="80.6,324.9 35.2,324.9 14,339.8 	"/>
	<polygon points="15.5,327.4 35.2,324.9 60.6,254.8 	"/>
	<polygon points="14,332.5 35.2,324.9 14.5,329.8 	"/>
	<polygon points="14.5,329.8 35.2,324.9 15.5,327.4 	"/>
	<polygon points="152.2,296.2 168.5,240 152.2,282.9 	"/>
	<polygon points="111,282.9 152.2,296.2 152.2,282.9 	"/>
	<polygon points="111,296.2 152.2,296.2 111,282.9 	"/>
	<polygon points="152.2,282.9 168.5,240 152.2,240 	"/>
	<polygon points="111,339.8 111,296.2 94.7,339.8 	"/>
	<polygon points="168.5,339.8 168.5,240 152.2,296.2 	"/>
	<polygon points="94.7,339.8 111,296.2 111,282.9 	"/>
	<polygon points="152.2,339.8 168.5,339.8 152.2,296.2 	"/>
	<polygon points="111,240 94.7,240 111,282.9 	"/>
	<polygon points="94.7,240 94.7,339.8 111,282.9 	"/>
	<polygon points="223.3,340.9 238.4,337.8 231.7,323 	"/>
	<polygon points="249.8,329.3 257,316.2 241.9,310.1 	"/>
	<polygon points="238.4,337.8 249.8,329.3 238,318 	"/>
	<polygon points="231.7,323 238.4,337.8 238,318 	"/>
	<polygon points="238,318 249.8,329.3 241.9,310.1 	"/>
	<polygon points="259.6,299.8 259.6,240 243.3,299.8 	"/>
	<polygon points="243.3,299.8 259.6,240 243.3,240 	"/>
	<polygon points="241.9,310.1 259.6,299.8 243.3,299.8 	"/>
	<polygon points="257,316.2 259.6,299.8 241.9,310.1 	"/>
	<polygon points="204.6,310 196.7,329.3 208.5,317.9 	"/>
	<polygon points="203.2,299.7 189.5,316.2 204.6,310 	"/>
	<polygon points="186.9,299.8 189.5,316.2 203.2,299.7 	"/>
	<polygon points="186.9,240 186.9,299.8 203.2,240 	"/>
	<polygon points="189.5,316.2 196.7,329.3 204.6,310 	"/>
	<polygon points="203.2,240 186.9,299.8 203.2,299.7 	"/>
	<polygon points="208.1,337.8 223.3,340.9 214.8,323 	"/>
	<polygon points="223.3,324.8 223.3,340.9 231.7,323 	"/>
	<polygon points="214.8,323 223.3,340.9 223.3,324.8 	"/>
	<polygon points="208.5,317.9 208.1,337.8 214.8,323 	"/>
	<polygon points="196.7,329.3 208.1,337.8 208.5,317.9 	"/>
	<polygon points="304.5,278.8 303.8,296.7 315.2,286.9 	"/>
	<polygon points="315.2,286.9 303.8,296.7 318.8,289.2 	"/>
	<polygon points="320.6,281.5 304.5,278.8 315.2,286.9 	"/>
	<polygon points="328.7,243.9 304.5,278.8 320.6,281.5 	"/>
	<polygon points="306.4,299.3 331.2,336.1 321.9,293.1 	"/>
	<polygon points="318.8,289.2 306.4,299.3 321.9,293.1 	"/>
	<polygon points="337.9,339.8 352.3,339.8 321.9,293.1 	"/>
	<polygon points="333.6,338.9 337.9,339.8 321.9,293.1 	"/>
	<polygon points="331.2,336.1 333.6,338.9 321.9,293.1 	"/>
	<polygon points="331.8,240.9 328.7,243.9 320.6,281.5 	"/>
	<polygon points="303.8,296.7 306.4,299.3 318.8,289.2 	"/>
	<polygon points="294.3,240 278,240 294.3,281.8 	"/>
	<polygon points="278,240 294.3,295.9 294.3,281.8 	"/>
	<polygon points="278,339.8 294.3,295.9 278,240 	"/>
	<polygon points="294.3,339.8 294.3,295.9 278,339.8 	"/>
	<polygon points="294.3,281.8 294.3,295.9 298.1,281.8 	"/>
	<polygon points="298.1,281.8 299.4,295.9 301.9,281.1 	"/>
	<polygon points="350.1,240 336,240 320.6,281.5 	"/>
	<polygon points="294.3,295.9 299.4,295.9 298.1,281.8 	"/>
	<polygon points="301.9,281.1 303.8,296.7 304.5,278.8 	"/>
	<polygon points="336,240 331.8,240.9 320.6,281.5 	"/>
	<polygon points="299.4,295.9 303.8,296.7 301.9,281.1 	"/>
	<polygon points="384.2,322.6 377.6,337.1 395.7,325 	"/>
	<polygon points="354.5,310.2 363.6,326.4 375.4,315.7 	"/>
	<polygon points="363.6,326.4 377.6,337.1 384.2,322.6 	"/>
	<polygon points="375.4,315.7 363.6,326.4 384.2,322.6 	"/>
	<polygon points="368,289.9 351.3,289.9 369.9,304.6 	"/>
	<polygon points="351.3,289.9 354.5,310.2 369.9,304.6 	"/>
	<polygon points="369.9,304.6 354.5,310.2 375.4,315.7 	"/>
	<polygon points="436.9,310.2 440,289.9 423.4,289.9 	"/>
	<polygon points="415.9,315.7 427.9,326.4 421.4,304.6 	"/>
	<polygon points="377.6,337.1 395.7,340.9 395.7,325 	"/>
	<polygon points="407.2,322.6 413.9,337.1 415.9,315.7 	"/>
	<polygon points="427.9,326.4 436.9,310.2 421.4,304.6 	"/>
	<polygon points="413.9,337.1 427.9,326.4 415.9,315.7 	"/>
	<polygon points="423.4,289.9 440,289.9 438.6,275.9 	"/>
	<polygon points="395.7,325 395.7,340.9 407.2,322.6 	"/>
	<polygon points="421.4,304.6 436.9,310.2 423.4,289.9 	"/>
	<polygon points="354.5,269.6 351.3,289.9 368,289.9 	"/>
	<polygon points="369.9,275.2 354.5,269.6 368,289.9 	"/>
	<polygon points="434.5,263.7 427.8,253.4 421.4,275.2 	"/>
	<polygon points="423.4,289.9 438.6,275.9 421.4,275.2 	"/>
	<polygon points="421.4,275.2 427.8,253.4 415.9,264.1 	"/>
	<polygon points="395.7,340.9 413.9,337.1 407.2,322.6 	"/>
	<polygon points="419,245.6 408.2,240.6 407.2,257.1 	"/>
	<polygon points="363.6,253.4 354.5,269.6 369.9,275.2 	"/>
	<polygon points="427.8,253.4 419,245.6 415.9,264.1 	"/>
	<polygon points="415.9,264.1 419,245.6 407.2,257.1 	"/>
	<polygon points="438.6,275.9 434.5,263.7 421.4,275.2 	"/>
	<polygon points="384.2,257.1 377.6,242.7 375.4,264.1 	"/>
	<polygon points="377.6,242.7 363.6,253.4 375.4,264.1 	"/>
	<polygon points="395.7,238.9 377.6,242.7 384.2,257.1 	"/>
	<polygon points="407.2,257.1 408.2,240.6 395.7,254.7 	"/>
	<polygon points="375.4,264.1 363.6,253.4 369.9,275.2 	"/>
	<polygon points="408.2,240.6 395.7,238.9 395.7,254.7 	"/>
	<polygon points="395.7,254.7 395.7,238.9 384.2,257.1 	"/>
	<polygon points="457.7,241.2 454.2,240 460.7,272.5 	"/>
	<polygon points="459.7,244.2 457.7,241.2 460.7,272.5 	"/>
	<polygon points="454.2,240 441.1,240 460.7,272.5 	"/>
	<polygon points="484.1,319 482.3,311.6 460.7,272.5 	"/>
	<polygon points="441.1,240 476.5,339.8 460.7,272.5 	"/>
	<polygon points="482.3,311.6 480.3,305.1 460.7,272.5 	"/>
	<polygon points="480.3,305.1 459.7,244.2 460.7,272.5 	"/>
	<polygon points="476.5,339.8 491.2,339.8 484.1,319 	"/>
	<polygon points="502.3,289.9 487.5,305.1 485.6,311.6  	"/>
	<polygon points="502.3,289.9 510,241.3 508,244.2  	"/>
	<polygon points="502.3,289.9 508,244.2 487.5,305.1 	"/>
	<polygon points="502.3,289.9 485.6,311.6 484.1,319  	"/>
	<polygon points=" 502.3,289.9 491.2,339.8 526.6,240 	"/>
	<polygon points="484.1,319 491.2,339.8 502.3,289.9 	"/>
	<polygon points="502.3,289.9 502.3,289.9 502.3,289.9 	"/>
	<polygon points="502.3,289.9 502.3,289.9 502.3,289.9 	"/>
	<polygon points="513.4,240 510,241.3 502.3,289.9 	"/>
	<polygon points="460.7,272.5 476.5,339.8 484.1,319 	"/>
	<polygon points="502.3,289.9 502.3,289.9 502.3,289.9 	"/>
	<polygon points="502.3,289.9 502.3,289.9 502.3,289.9 	"/>
	<polygon points="502.3,289.9 526.6,240 513.4,240  	"/>
	<polygon points="580.1,258.1 584.2,249.4 578.6,260.2 	"/>
	<polygon points="545.3,266.6 530.1,267.5 547,272.4 	"/>
	<polygon points="530.1,267.5 531.8,279 547,272.4 	"/>
	<polygon points="532,256.9 530.1,267.5 545.3,266.6 	"/>
	<polygon points="536.4,286.8 542.9,291.8 547,272.4 	"/>
	<polygon points="531.8,279 536.4,286.8 547,272.4 	"/>
	<polygon points="537.5,247.7 532,256.9 546.1,261.5 	"/>
	<polygon points="546.5,241.3 537.5,247.7 548.7,257.5 	"/>
	<polygon points="553,254.9 546.5,241.3 548.7,257.5 	"/>
	<polygon points="547,272.4 542.9,291.8 551.6,276.4 	"/>
	<polygon points="546.1,261.5 532,256.9 545.3,266.6 	"/>
	<polygon points="548.7,257.5 537.5,247.7 546.1,261.5 	"/>
	<polygon points="579.5,290.6 568.7,304.7 584,298 	"/>
	<polygon points="564.1,300.6 568.7,304.7 579.5,290.6 	"/>
	<polygon points="558.7,238.9 546.5,241.3 553,254.9 	"/>
	<polygon points="526.5,327.8 532.3,333.2 531.3,318.9 	"/>
	<polygon points="570.4,311.1 585.8,308.5 584,298 	"/>
	<polygon points="573,285.6 564.1,300.6 579.5,290.6 	"/>
	<polygon points="565.5,282.2 557.6,297.7 573,285.6 	"/>
	<polygon points="551.6,276.4 550.3,295.1 558.1,279.4 	"/>
	<polygon points="550.3,295.1 557.6,297.7 558.1,279.4 	"/>
	<polygon points="542.9,291.8 550.3,295.1 551.6,276.4 	"/>
	<polygon points="557.6,297.7 564.1,300.6 573,285.6 	"/>
	<polygon points="558.1,279.4 557.6,297.7 565.5,282.2 	"/>
	<polygon points="568.7,304.7 570.4,311.1 584,298 	"/>
	<polygon points="539.3,337.3 547.1,340 548,324.3 	"/>
	<polygon points="542.4,321.2 539.3,337.3 548,324.3 	"/>
	<polygon points="548,324.3 547.1,340 555.8,325.7 	"/>
	<polygon points="555.3,340.9 568.2,338.4 555.8,325.7 	"/>
	<polygon points="547.1,340 555.3,340.9 555.8,325.7 	"/>
	<polygon points="555.8,325.7 568.2,338.4 566.6,321.9 	"/>
	<polygon points="532.3,333.2 539.3,337.3 542.4,321.2 	"/>
	<polygon points="558.9,254 558.7,238.9 553,254.9 	"/>
	<polygon points="531.3,318.9 532.3,333.2 532.9,317.3 	"/>
	<polygon points="532.9,317.3 532.3,333.2 534.9,316.6 	"/>
	<polygon points="534.9,316.6 532.3,333.2 538.2,318 	"/>
	<polygon points="538.2,318 532.3,333.2 542.4,321.2 	"/>
	<polygon points="566.6,321.9 583.7,321.2 570.4,311.1 	"/>
	<polygon points="570.2,257.5 584.2,249.4 565.4,255.1 	"/>
	<polygon points="584.2,249.4 573,241.7 565.4,255.1 	"/>
	<polygon points="573.8,259.8 584.2,249.4 570.2,257.5 	"/>
	<polygon points="568.2,338.4 577.8,331.5 566.6,321.9 	"/>
	<polygon points="565.4,255.1 573,241.7 558.9,254 	"/>
	<polygon points="573,241.7 558.7,238.9 558.9,254 	"/>
	<polygon points="576.5,260.9 584.2,249.4 573.8,259.8 	"/>
	<polygon points="583.7,321.2 585.8,308.5 570.4,311.1 	"/>
	<polygon points="577.8,331.5 583.7,321.2 566.6,321.9 	"/>
	<polygon points="578.6,260.2 584.2,249.4 576.5,260.9 	"/>
	<polygon points="637.2,286.9 628.4,299.3 640.8,289.2 	"/>
	<polygon points="625.7,296.7 628.4,299.3 637.2,286.9 	"/>
	<polygon points="626.5,278.8 623.8,281.1 637.2,286.9 	"/>
	<polygon points="642.6,281.5 626.5,278.8 637.2,286.9 	"/>
	<polygon points="659.9,339.8 674.2,339.8 643.8,293.1 	"/>
	<polygon points="640.8,289.2 628.4,299.3 643.8,293.1 	"/>
	<polygon points="655.6,338.9 659.9,339.8 643.8,293.1 	"/>
	<polygon points="650.6,243.9 626.5,278.8 642.6,281.5 	"/>
	<polygon points="653.2,336.1 655.6,338.9 643.8,293.1 	"/>
	<polygon points="628.4,299.3 653.2,336.1 643.8,293.1 	"/>
	<polygon points="623.8,281.1 625.7,296.7 637.2,286.9 	"/>
	<polygon points="599.9,240 599.9,339.8 616.2,281.8 	"/>
	<polygon points="599.9,339.8 616.2,295.9 616.2,281.8 	"/>
	<polygon points="616.2,240 599.9,240 616.2,281.8 	"/>
	<polygon points="616.2,339.8 616.2,295.9 599.9,339.8 	"/>
	<polygon points="616.2,295.9 621.4,295.9 616.2,281.8 	"/>
	<polygon points="620,281.8 621.4,295.9 623.8,281.1 	"/>
	<polygon points="658,240 653.8,240.9 642.6,281.5 	"/>
	<polygon points="672.1,240 658,240 642.6,281.5 	"/>
	<polygon points="621.4,295.9 625.7,296.7 623.8,281.1 	"/>
	<polygon points="653.8,240.9 650.6,243.9 642.6,281.5 	"/>
	<polygon points="616.2,281.8 621.4,295.9 620,281.8 	"/>
	<polygon points="691.1,289.9 699.3,240 683,240 	"/>
	<polygon points="699.3,339.8 699.3,240 691.1,289.9 	"/>
	<polygon points="683,240 683,339.8 691.1,289.9 	"/>
	<polygon points="683,339.8 699.3,339.8 691.1,289.9 	"/>
	<polygon points="748.5,288.3 756.5,301.1 750.3,283.1 	"/>
	<polygon points="740.2,301.1 756.5,301.1 748.5,288.3 	"/>
	<polygon points="746.6,283.1 740.2,301.1 748.5,288.3 	"/>
	<polygon points="752.7,277.5 756.5,301.1 768.6,244.1 	"/>
	<polygon points="750.3,283.1 756.5,301.1 752.7,277.5 	"/>
	<polygon points="774,240 756.5,301.1 788.4,240 	"/>
	<polygon points="770.6,241.3 756.5,301.1 774,240 	"/>
	<polygon points="768.6,244.1 756.5,301.1 770.6,241.3 	"/>
	<polygon points="740.2,339.8 756.5,339.8 748.4,320.5 	"/>
	<polygon points="708.3,240 740.2,301.1 722.7,240 	"/>
	<polygon points="744.1,277.5 740.2,301.1 746.6,283.1 	"/>
	<polygon points="756.5,339.8 756.5,301.1 748.4,320.5 	"/>
	<polygon points="740.2,301.1 740.2,339.8 748.4,320.5 	"/>
	<polygon points="748.4,320.5 756.5,301.1 740.2,301.1 	"/>
	<polygon points="722.7,240 740.2,301.1 726,241.2 	"/>
	<polygon points="728.1,244.1 740.2,301.1 744.1,277.5 	"/>
	<polygon points="726,241.2 740.2,301.1 728.1,244.1 	"/>
</g>
</svg>
