<svg id="Слой_1" xmlns="http://www.w3.org/2000/svg" viewBox="0 0 600 800"><path d="M282.8 504.9l-2.7-30.1-74.6 41.3zm-46.3 47.4l46.3-47.4-77.3 11.2zm59.6 13.1l-13.3-60.5-46.3 47.4z"/><path d="M295.1 511.9l-12.3-7 13.3 60.5zm-89.6 4.2l74.6-41.3-82.2-28.3z"/><path d="M197.9 446.5l82.2 28.3-82.2-120.7zM354.6 550l-59.5-38.1 1 53.5zm-74.5-75.2V327.9l-82.2 26.2zm29.9-3l-2.9 33.1 78.2 9.1zm82.2-39.8H310l82.2 12.4z"/><path d="M392.2 444.4L310 471.8l75.3 42.2zm-85.1 60.5l-12 7 59.5 38.1z"/><path d="M385.3 514l-78.2-9.1 47.5 45.1zM310 432v39.8l82.2-27.4zm-2.7-136.6l2.7 29.9 74.8-40.3zm-109.4 58.7l82.2-26.2-79.9-25.1zM384.8 285L310 325.3l82.2 24.9zm7.4 95.3v-30.1L310 380.3zm-98.4-144.4l13.5 59.5 46.4-45.4z"/><path d="M392.2 350.2L310 325.3v55zM353.7 250l-46.4 45.4 77.5-10.4zm-58 39.5l11.6 5.9-13.5-59.5zm-15.6 38.4l2.7-31.2-68.6-26.8zm-79.9-25.1l79.9 25.1-65.9-58zm14-32.9l68.6 26.8-36.4-51.7zm32.2-24.9l49.3 44.5-1.9-53.6zm36.4 51.7l12.9-7.2-49.3-44.5z"/></svg>