<svg id="Слой_1" xmlns="http://www.w3.org/2000/svg" viewBox="0 0 1200 1200"><path d="M569.1 725.3l.9-61-83 35.3z"/><path d="M570 664.3V453l-83 246.6z"/><path d="M560.1 749.8l9-24.5-82.1-25.7zm-72.3-74.4L570 453h-82.2z"/><path d="M487 699.6L570 453l-82.2 222.4zm-19.7 14.9l30.5 54.7-16.6-59z"/><path d="M538.6 765l21.5-15.2-73.1-50.2zm-82-51.1l41.2 55.3-30.5-54.7zm0 55.3h41.2l-41.2-55.3z"/><path d="M497.8 769.2l40.8-4.2-57.4-54.8z"/><path d="M481.2 710.2l57.4 54.8-51.6-65.4zm207.4 12.1l3.1 53.5 9.1-60z"/><path d="M700.8 715.8l74.2 22.3-70.2-41.4zm-23.6 1.4l-41.8 46.1 53.2-41zm14.5 58.6l52.8-10.8-43.7-49.2z"/><path d="M744.5 765l30.5-26.9-74.2-22.3zM674 655.9l-76.4 20.7 76.4 17.8zm-69.2 75.6l30.6 31.8 41.8-46.1z"/><path d="M597.6 655.9v20.7l76.4-20.7zm76.4 38.5l-69.2 37.1 72.4-14.3z"/><path d="M597.6 676.6l7.2 54.9 69.2-37.1zm37.8 86.7l56.3 12.5-3.1-53.5zm140.7-214.6v-12.5l-76.4 12.5zm-99.8-.6L618.1 602l81.4-34.6zm-4.3-23.8l-77 10.9 81.3 12.9z"/><path d="M604.3 482.1l-9.3 53.1 77-10.9zm-9.3 53.1l6.6 41.4 74.7-28.5zm104.5 32.2L618.1 602l150.6 18.9zm-2.3 92.8l7.6 36.5 78.1-8.4zM618.1 602l40.6 29.5 110-10.6z"/><path d="M704.8 696.7l70.2 41.4 7.9-49.8zm63.9-75.8l-71.5 39.3 85.7 28.1z"/><path d="M658.7 631.5l38.5 28.7 71.5-39.3zm-57.1-54.9l16.5 25.4 58.2-53.9zm137.3-119.9l-54.6-10.4 12.5 58z"/><path d="M768.8 482.7l-29.9-26-42.1 47.6zm-69.1 42.5l69.1-42.5-72 21.6zm-23.9-19.3l-71.5-23.8 67.7 42.2z"/><path d="M699.7 548.7l69.1-66-69.1 42.5zm76.4-12.5l-7.3-53.5-69.1 66zm-79.3-31.9l-12.5-58 2.7 53.5zm-9.8-4.5l-52.7-44 41.5 50.1z"/><path d="M634.3 455.8l-30 26.3 71.5 23.8zm50-9.5l-50 9.5 52.7 44z"/></svg>