<svg xmlns="http://www.w3.org/2000/svg" xmlns:xlink="http://www.w3.org/1999/xlink"><symbol fill="none" viewBox="0 0 92 42" id="lifeline" xmlns="http://www.w3.org/2000/svg"><path fill-rule="evenodd" clip-rule="evenodd" d="M46.233 40.516c25.086-.364 44.677-8.827 45.11-22.122-.142-9.784-20.54-13.672-45.626-13.308C20.631 5.451.355 9.93.497 19.714c.208 14.308 20.65 21.167 45.736 20.802zm-.08-5.45c17.475-.255 31.56-5.951 31.462-12.725-.098-6.773-14.344-12.058-31.817-11.804-17.475.254-31.56 5.95-31.462 12.724.098 6.773 14.344 12.058 31.818 11.804z" fill="#EE6F6F"/><path fill-rule="evenodd" clip-rule="evenodd" d="M46.173 36.428c25.087-.364 45.308-8.591 45.166-18.375C91.197 8.269 70.745.633 45.659.998 20.572 1.363.35 9.59.493 19.373c.142 9.784 20.594 17.42 45.68 17.055zm.469-8.494c16.498-.24 29.235-3.593 29.145-9.816-.09-6.222-13.54-11.073-30.037-10.833-16.498.24-29.8 5.479-29.71 11.702.091 6.223 14.104 9.186 30.602 8.947z" fill="#FE7A7A"/><path fill-rule="evenodd" clip-rule="evenodd" d="M46.089 30.637c19.21-.28 34.702-6.102 34.596-13.394C80.579 9.95 64.933 5.21 45.723 5.489c-19.21.28-34.71 5.474-34.605 12.765.106 7.292 15.76 12.662 34.97 12.383zm-.039-2.695c16.498-.24 29.826-3.658 29.734-9.995-.092-6.336-13.523-10.003-30.021-9.764-16.498.24-29.817 4.296-29.725 10.633.092 6.336 13.514 9.366 30.012 9.126z" fill="#F77171"/><path d="M40.338 1.076c-1.59 3.167-1.13 6.754.144 9.879 2.04-.479 8.996-.58 11.049-.16 1.571-4.515.7-8.096-.553-9.874-4.917-.378-4.917-.378-10.64.155zM2.464 14.203c-2.819 3.185-2.35 7.22-1.077 10.346 3.221-3.64 10.977-5.1 17.583-1.154-5.392-4.862-.897-5.377-.5-6.28-3.346-4.893-9.498-5.702-16.006-2.912zm86.599-1.3c2.91 3.102 2.56 7.15 1.378 10.31-3.326-3.544-11.12-4.778-17.61-.642 5.249-5.017.74-5.4.318-6.292 3.202-4.988 9.328-5.975 15.914-3.376zM53.61 40.268c1.998-4.114 1.384-8.753-.26-12.788-3.292.346-10.656.571-14.052.3-1.964 5.858-.829 10.486.78 12.777 7.07.388 7.07.388 13.531-.29z" fill="#FDFDFD" fill-opacity=".844"/></symbol><symbol viewBox="0 0 8 7" id="s-arrow-down" xmlns="http://www.w3.org/2000/svg"><path d="M4.866 6.5a1 1 0 0 1-1.732 0L.536 2A1 1 0 0 1 1.402.5h5.196A1 1 0 0 1 7.464 2L4.866 6.5z"/></symbol><symbol viewBox="0 0 42 42" id="s-close" xmlns="http://www.w3.org/2000/svg"><path d="M1 1l40 40m0-40L1 41"/></symbol><symbol viewBox="0 0 24 24" id="s-facebook" xmlns="http://www.w3.org/2000/svg"><path d="M11.937 0C5.355 0 0 5.383 0 12c0 6.616 5.355 12 11.937 12 6.582 0 11.938-5.384 11.938-12 0-6.617-5.355-12-11.938-12zm2.969 12.422h-1.942v6.959h-2.878v-6.959H8.718v-2.46h1.368v-1.59c0-1.14.539-2.92 2.904-2.92l2.133.009v2.387h-1.548c-.252 0-.61.127-.61.67v1.445h2.192l-.251 2.459z"/></symbol><symbol viewBox="0 0 24 24" id="s-google" xmlns="http://www.w3.org/2000/svg"><path d="M10.338 13.988l-.24-.165a2.708 2.708 0 0 0-.762-.116h-.031c-1.21 0-2.269.735-2.269 1.574 0 .914.908 1.628 2.067 1.628 1.529 0 2.303-.53 2.303-1.575 0-.099-.011-.201-.036-.304-.103-.405-.473-.658-1.032-1.042zm-.856-3.185a.924.924 0 0 0 .722-.332c.297-.339.428-.896.35-1.487-.137-1.057-.889-1.936-1.673-1.96H8.85a.925.925 0 0 0-.713.332c-.292.334-.416.865-.34 1.455.138 1.056.906 1.968 1.674 1.992h.01z"/><path d="M11.937 0C5.355 0 0 5.383 0 12c0 6.616 5.355 12 11.937 12 6.582 0 11.938-5.384 11.938-12 0-6.617-5.355-12-11.938-12zm-1.376 17.843c-.45.13-.939.197-1.451.197a6.63 6.63 0 0 1-1.63-.196c-.989-.25-1.72-.726-2.061-1.34a1.711 1.711 0 0 1-.222-.839c0-.3.072-.606.213-.909.542-1.16 1.97-1.942 3.553-1.942h.045a1.423 1.423 0 0 1-.14-1.089c-1.66-.037-2.903-1.26-2.903-2.87 0-1.138.905-2.246 2.198-2.694a3.57 3.57 0 0 1 1.17-.203h3.55a.28.28 0 0 1 .164.507l-.794.578a.283.283 0 0 1-.164.052h-.284c.366.443.581 1.073.581 1.781 0 .782-.393 1.521-1.109 2.084-.553.433-.574.553-.574.8.006.136.391.579.816.88.99.705 1.359 1.395 1.359 2.548 0 1.204-.91 2.244-2.317 2.655zm8.016-6.12a.28.28 0 0 1-.279.28h-2.017v2.029a.28.28 0 0 1-.278.28h-.574a.28.28 0 0 1-.28-.28v-2.03h-2.016a.28.28 0 0 1-.279-.28v-.576a.28.28 0 0 1 .28-.281h2.015V8.838a.28.28 0 0 1 .28-.28h.574a.28.28 0 0 1 .278.28v2.027h2.017a.28.28 0 0 1 .279.28v.578z"/></symbol><symbol viewBox="0 0 24 24" id="s-instagram" xmlns="http://www.w3.org/2000/svg"><path d="M11.937 14.402a2.4 2.4 0 0 0 1.938-3.803 2.383 2.383 0 0 0-1.937-1.002c-.798 0-1.503.397-1.938 1.002a2.4 2.4 0 0 0-.452 1.4 2.397 2.397 0 0 0 2.389 2.403zm5.218-5.342V6.748l-.3.002-2.001.006.007 2.314 2.294-.008z"/><path d="M11.937 0C5.355 0 0 5.383 0 12c0 6.616 5.355 12 11.937 12 6.582 0 11.938-5.384 11.938-12 0-6.617-5.355-12-11.938-12zm6.79 10.6v5.587a2.634 2.634 0 0 1-2.625 2.638h-8.33a2.633 2.633 0 0 1-2.624-2.638V7.813a2.633 2.633 0 0 1 2.624-2.638h8.33a2.634 2.634 0 0 1 2.624 2.638V10.6z"/><path d="M15.65 12c0 2.057-1.665 3.732-3.713 3.732S8.224 14.057 8.224 12c0-.495.098-.968.273-1.4H6.47v5.588c0 .722.584 1.307 1.302 1.307h8.33c.716 0 1.3-.585 1.3-1.307V10.6h-2.027c.176.432.276.905.276 1.4z"/></symbol><symbol viewBox="0 0 18 22" id="s-phone" xmlns="http://www.w3.org/2000/svg"><path d="M15.529 16.85a31.612 31.612 0 0 0-2.083-2.565l-2.136 1.537-6.147-8.546L7.3 5.74s-.785-1.422-1.77-2.79C4.546 1.58 3.448.385 3.448.385S.917 2.05.507 3.631c-.549 2.116 1.088 6.393 4.075 10.547 2.988 4.153 6.523 7.065 8.704 7.218 1.63.114 4.012-1.756 4.012-1.756s-.785-1.422-1.77-2.79z"/></symbol><symbol viewBox="0 0 10 11" id="s-play" xmlns="http://www.w3.org/2000/svg"><path d="M8.784 5.07a1 1 0 0 1 0 1.751l-7.3 4.035A1 1 0 0 1 0 9.98V1.91a1 1 0 0 1 1.484-.875l7.3 4.035z"/></symbol><symbol viewBox="0 0 80 80" id="s-slider-next" xmlns="http://www.w3.org/2000/svg"><path fill-rule="evenodd" clip-rule="evenodd" d="M40 0C24 0 0 22.5 0 40c0 22.091 17.909 40 40 40s40-23 40-40c0-22.091-7-40-40-40zm21.06 38.94l-9.545-9.546a1.5 1.5 0 1 0-2.122 2.12L56.38 38.5H20v3h36.379l-6.986 6.985a1.5 1.5 0 1 0 2.122 2.121l9.545-9.546a1.5 1.5 0 0 0 0-2.12z"/></symbol><symbol viewBox="0 0 80 80" id="s-slider-prev" xmlns="http://www.w3.org/2000/svg"><path fill-rule="evenodd" clip-rule="evenodd" d="M40 80c25.5 0 40-23.5 40-40C80 26.5 62.091 0 40 0 8 0 0 17.909 0 40s26 40 40 40zM18.94 41.06l9.545 9.546a1.5 1.5 0 1 0 2.122-2.12L23.62 41.5H60v-3H23.621l6.986-6.985a1.5 1.5 0 1 0-2.122-2.121L18.94 38.94a1.5 1.5 0 0 0 0 2.12z"/></symbol><symbol viewBox="0 0 16 15" id="s-star" xmlns="http://www.w3.org/2000/svg"><path d="M8 1.264l1.704 3.957.117.272.296.028 4.29.397-3.237 2.844-.223.195.065.29.947 4.202-3.704-2.199L8 11.098l-.255.152-3.704 2.2.947-4.203.065-.29-.223-.195-3.236-2.844 4.29-.397.295-.028.117-.272L8 1.264z"/></symbol><symbol viewBox="0 0 24 24" id="s-twitter" xmlns="http://www.w3.org/2000/svg"><path d="M11.937 0C5.355 0 0 5.383 0 12c0 6.616 5.355 12 11.937 12 6.582 0 11.938-5.384 11.938-12 0-6.617-5.355-12-11.938-12zm5.325 9.253c.006.119.009.239.009.359 0 3.65-2.763 7.857-7.818 7.857a7.741 7.741 0 0 1-4.212-1.24 5.52 5.52 0 0 0 4.068-1.144 2.752 2.752 0 0 1-2.567-1.918 2.756 2.756 0 0 0 1.24-.047 2.759 2.759 0 0 1-2.203-2.708v-.035c.37.207.795.331 1.245.346a2.764 2.764 0 0 1-1.222-2.299c0-.506.135-.981.371-1.39a7.788 7.788 0 0 0 5.663 2.888 2.774 2.774 0 0 1-.07-.63 2.755 2.755 0 0 1 2.747-2.762c.79 0 1.503.335 2.005.872a5.467 5.467 0 0 0 1.746-.67 2.771 2.771 0 0 1-1.21 1.528 5.439 5.439 0 0 0 1.578-.435 5.543 5.543 0 0 1-1.37 1.428z"/></symbol><symbol viewBox="0 0 17 16" id="star" xmlns="http://www.w3.org/2000/svg"><path d="M14.3 6.7c0-.2-.1-.3-.4-.3l-3.7-.5-1.7-3.4c-.1-.2-.2-.3-.4-.3s-.3.1-.4.3L6 6l-3.7.5c-.3 0-.4.2-.4.3s.1.2.2.4l2.7 2.7-.6 3.8v.2c0 .1 0 .2.1.3s.1.1.2.1.2 0 .3-.1l3.3-1.8 3.3 1.8c.1.1.2.1.3.1.1 0 .2 0 .2-.1.1-.1.1-.2.1-.3v-.2l-.6-3.8 2.7-2.7c.1-.3.2-.4.2-.5z" fill="#ffc000"/><g transform="translate(-339 -886)"><defs><path id="ma" d="M339 902v-16h17v16h-17zm14.3-9.3c0-.2-.1-.3-.4-.3l-3.7-.5-1.7-3.4c-.1-.2-.2-.3-.4-.3s-.3.1-.4.3L345 892l-3.7.5c-.3 0-.4.2-.4.3s.1.2.2.4l2.7 2.7-.6 3.8v.2c0 .1 0 .2.1.3s.1.1.2.1.2 0 .3-.1l3.3-1.8 3.3 1.8c.1.1.2.1.3.1.1 0 .2 0 .2-.1.1-.1.1-.2.1-.3v-.2l-.6-3.8 2.7-2.7c.1-.3.2-.4.2-.5z"/></defs><clipPath id="mb"><use xlink:href="#ma" overflow="visible"/></clipPath><g clip-path="url(#mb)"><path d="M353.3 892.7c0-.2-.1-.3-.4-.3l-3.7-.5-1.7-3.4c-.1-.2-.2-.3-.4-.3s-.3.1-.4.3L345 892l-3.7.5c-.3 0-.4.2-.4.3s.1.2.2.4l2.7 2.7-.6 3.8v.2c0 .1 0 .2.1.3s.1.1.2.1.2 0 .3-.1l3.3-1.8 3.3 1.8c.1.1.2.1.3.1.1 0 .2 0 .2-.1.1-.1.1-.2.1-.3v-.2l-.6-3.8 2.7-2.7c.1-.3.2-.4.2-.5z" fill="none" stroke="#fff" stroke-width="4" stroke-linecap="round" stroke-linejoin="round" stroke-miterlimit="50"/></g></g></symbol></svg>