<svg id="Слой_1" xmlns="http://www.w3.org/2000/svg" viewBox="0 0 800 600"><path d="M18.7 288.3l5.6 8.4 13-15.5z"/><path d="M37.3 281.2l-13 15.5L43 285.5zm-2.1-6.3l-16.5 13.4 18.6-7.1zm7.8 10.6l-10.7 16.6 18.6-13.4zm-18.7 11.2l8 5.4L43 285.5z"/><path d="M16.6 275.9l2.1 12.4 16.5-13.4zm20.1-28.2l-11 6.9 13.7 10.6zm-11 6.9l-6.8 9.9 17.4 4.9z"/><path d="M18.9 264.5l-2.3 11.4 18.6-1z"/><path d="M36.3 269.4l-17.4-4.9 16.3 10.4zm3.1-4.2l-13.7-10.6 10.6 14.8zM63.9 316l2.2 6.9 16.6-14.2z"/><path d="M77.1 300.8L63.9 316l18.8-7.3zm-44.8 1.3l9 3.5 9.6-16.9z"/><path d="M58.3 311.5l5.6 4.5 13.2-15.2zm7.8 11.4l18.7-2.8-2.1-11.4zm-21.4-60.5l-8-14.7 2.7 17.5zm6.2 26.3l-9.6 16.9L60 291.7z"/><path d="M69.2 295.4l-10.9 16.1 18.8-10.7zm-27.9 10.2l9.1 2.8 9.6-16.7z"/><path d="M60 291.7l-9.6 16.7 18.8-13zm-9.6 16.7l7.9 3.1 10.9-16.1zm-2.8 46.5l15.8-2.7-15.2-13.7zm-15.9-21.3L27.9 351l10.7-14zM27.9 351l9.6 2.9 1.1-16.9z"/><path d="M63.4 352.2l11.7-7.5-13.7-10.2zm-36.9-21.9l-7.2 16.3 12.4-13zm11 23.6l10.1 1-9-17.9z"/><path d="M48.2 338.5l15.2 13.7-2-17.7zm-28.9 8.1l8.6 4.4 3.8-17.4zm3.2-17.9l-3.2 17.9 7.2-16.3zm-2.5.7l-.7 17.2 3.2-17.9zm31.9-68l-15.2-13.7 8 14.7zm-39.7 79.4l7.1 5.8-1.2-15.4zm5.9-9.6l1.2 15.4.7-17.2zm20.5 5.8l9 17.9.6-16.4zm35-68.2l-4.4-20.7 1 19.6zm4.3-3l-8.7-17.7 6.8 20zm-18-3.3l9.3-14.4-17.3 13.3z"/><path d="M76 268.1l-6.8-20 4.4 20.7zm-10.2-3l3.4-17-9.3 14.4zm9.3 79.6l7.3-11-21 .8z"/><path d="M70.2 267.7l-1-19.6-3.4 17zm-1-19.6l-17.5-3 .2 16.3z"/><path d="M51.7 245.1l-15 2.6 15.2 13.7zm9.7 89.4l21-.8-16.3-10.8zm21.5-78.1l-13.7-8.3 8.7 17.7z"/><path d="M82.4 333.7l2.4-13.6-18.7 2.8zm42.5-71h20l6.2-8.2zm52.3-16.4H92.5l32.4 16.4z"/><path d="M151.1 254.5l-6.2 8.2h32.3zm26.1 8.2v-16.4l-26.1 8.2zm-84.7 0h32.4l-32.4-16.4zm32.4 0v91l10-45.5zm0 91h20l-10-45.5zm20 0v-91l-10 45.5z"/><path d="M134.9 308.2l10-45.5h-20zm68.5 4.9l-5.2 14.2 24.9-7.1zm-13.2 36.1l8-21.9-12.4 6.1z"/><path d="M187.9 352.3l2.3-3.1-4.4-15.8zm10.3-25h44.5l-19.6-7.1zm-12.4 6.1l12.4-6.1 5.2-14.2z"/><path d="M223.1 320.2l19.6 7.1-5.1-14.2z"/><path d="M237.6 313.1l5.1 14.2 12.6 6.1zm-3.4-33.4l38.7 74-42.2-107.4zm-50.5 74l4.2-1.4-2.1-18.9zm73.7 0h15.5l-17.6-20.3z"/><path d="M242.7 327.3l8.1 21.9 4.5-15.8zm10.5 25.1l4.2 1.3-2.1-20.3z"/><path d="M250.8 349.2l2.4 3.2 2.1-19z"/><path d="M237.6 313.1l35.3 40.6-38.7-74zm-13.1-35.7l9.7 2.3-11.7-7.9z"/><path d="M237.6 313.1l-3.4-33.4-9.7-2.3zm-3.4-33.4l-3.5-33.4-10.2 18.4z"/><path d="M222.5 271.8l11.7 7.9-13.7-15zm.6 48.4l14.5-7.1h-34.2zm-19.8-31l.1 23.9 13-35.5z"/><path d="M216.4 277.6l2.1-5.8-15.4-7.1zm-13.3-12.9l-35 89 35.2-64.5zm27.6-18.4h-20.3l10.1 18.4zm-27.3 66.8l-.1-23.9-35.2 64.5z"/><path d="M203.4 288.9l13-11.3-13.3-12.9zm-35.3 64.8h15.6l2.1-20.3zm52.4-89l-10.1-18.4 8.1 25.5zm-10.1-18.4l-7.3 18.4 15.4 7.1zM365.8 300l-8.8-53.7v65.3zm-8.8 11.6l.1 4.7 8.7-16.3zm8.8-11.6l-8.3 21.4 17.1 32.3z"/><path d="M364.3 353.7h10.3l-17.1-32.3z"/><path d="M357.1 316.3l.4 5.1 8.3-21.4z"/><path d="M299.7 247.8l1.5 30.9 56.3 42.7zm60.6 105.1l4 .8-6.8-32.3zm14.3.8V246.3l-8.8 53.7z"/><path d="M301.2 278.7l56.1 71.6.2-28.9zm56.1 71.6l3 2.6-2.8-31.5zm-55.7 3.4v-66l-8.8 33zM284 246.3v107.4l8.8-33z"/><path d="M296.7 246.4l-12.7-.1 4.4 37.2zm1.6.5l-1.6-.5-8.3 37.1zM284 353.7h17.6l-8.8-33zm81.8-53.7l8.8-53.7H357zm-67.5-53.1l2.9 31.8-1.5-30.9z"/><path d="M288.4 283.5l12.8-4.8-2.9-31.8zm13.2 4.2l-.4-9-12.8 4.8z"/><path d="M292.8 320.7l8.8-33-13.2-4.2zM408.5 300l10-53.7h-20zm0 0l10 53.7V246.3zm-10-53.7v107.4l10-53.7z"/><path d="M398.5 353.7h20l-10-53.7zm58.5-78.8l-16.5 13.4 18.6-7.1zm1-5.5l-17.3-4.9 16.3 10.4zm-11.9 27.3l7.9 5.4 10.7-16.6z"/><path d="M438.4 275.9l2.1 12.4 16.5-13.4zm2.1 12.4l5.6 8.4 13-15.5z"/><path d="M459.1 281.2l-13 15.5 18.6-11.2zm-18.4-16.7l-2.3 11.4 18.6-1zm6.8-9.9l-6.8 9.9 17.3 4.9zm26-9.5l-15 2.6 15.2 13.7zm.2 16.3l-15.2-13.7 7.9 14.7zm-15.2-13.7l-11 6.9 13.7 10.6z"/><path d="M461.2 265.2l-13.7-10.6 10.5 14.8zm5.2-2.8l-7.9-14.7 2.7 17.5zm32.5 38.4L485.7 316l18.8-7.3z"/><path d="M490.9 295.4l-5.2 20.6 13.2-15.2zm-3.1 27.5l18.8-2.8-2.1-11.4z"/><path d="M485.7 316l2.1 6.9 16.7-14.2z"/><path d="M480.1 311.5l5.6 4.5 5.2-20.6zm-17-5.9l9.1 2.8.5-19.7zm1.6-20.1l-1.6 20.1 9.6-16.9z"/><path d="M454 302.1l9.1 3.5 1.6-20.1zm27.8-10.4l-1.7 19.8 10.8-16.1zm-9.6 16.7l7.9 3.1 1.7-19.8zm.5-19.7l-.5 19.7 9.6-16.7zM434 340.8l7.1 5.8-1.3-15.4zm7.1 5.8l8.6 4.4 3.7-17.4zm18.1 7.3l10.1 1-8.9-17.9z"/><path d="M453.4 333.6l-3.7 17.4 10.7-14zm-3.7 17.4l9.5 2.9 1.2-16.9zm19.6 3.9l15.8-2.7-15.2-13.7zm-8.9-17.9l8.9 17.9.6-16.4z"/><path d="M469.9 338.5l15.2 13.7-2-17.7zm11.8-76l-8.2-17.4.2 16.3zm-33.4 67.8l-7.2 16.3 12.3-13zm-4-1.6l-3.2 17.9 7.2-16.3zm-4.5 2.5l1.3 15.4.7-17.2z"/><path d="M441.8 329.4l-.7 17.2 3.2-17.9zm49.2-81.3l-17.5-3 8.2 17.4zm6.8 20l-6.8-20 4.3 20.7zm-12.7 84.1l11.7-7.5-13.7-10.2z"/><path d="M499.7 265.8l-8.7-17.7 6.8 20z"/><path d="M491.9 267.7l-.9-19.6-3.4 17z"/><path d="M487.6 265.1l3.4-17-9.3 14.4zm7.7 3.7l-4.3-20.7.9 19.6zm9.4-12.4l-13.7-8.3 8.7 17.7zm-7.9 88.3l7.3-11-21 .8zm-13.7-10.2l21-.8-16.3-10.8zm21-.8l2.5-13.6-18.8 2.8zm19.9 20h62.9l-21.5-8.2zm20-16.5l-20 16.5 41.4-8.2zm42.9 16.5v-16.5l-21.5 8.3zm-21.5-8.2l21.5-8.3H544zm-21.4-8.3v-90.9l-10 45.5z"/><path d="M544 246.3h-20l10 45.5zm-10 45.5l-10 61.9 20-16.5z"/><path d="M524 246.3v107.4l10-61.9zm99.7 66.8l-5.2 14.2 39.4-14.2zm-15.5 39.2l2.3-3.1 3.4-15.8zm2.3-3.1l8-21.9-4.6 6.1zm3.4-15.8l4.6-6.1 5.2-14.2zm44-20.3l5.1 14.2 15.1 13.2zm-39.4 14.2H663l-5.1-14.2zm59.2 26.4h15.5l-15.1-13.2zM663 327.3l8 21.9 7.1-8.7z"/><path d="M678.1 340.5l15.1 13.2L651 246.3zm-4.6 11.9l4.2 1.3.4-13.2z"/><path d="M671 349.2l2.5 3.2 4.6-11.9zm-26.2-71.8l6.2-31.1-8.2 25.5z"/><path d="M642.8 271.8l8.2-25.5-10.3 18.4z"/><path d="M651 246.3h-20.4l10.1 18.4zm6.9 66.8l-6.9-66.8-6.2 31.1z"/><path d="M678.1 340.5L651 246.3l6.9 66.8zm-37.4-75.8l-10.1-18.4 8.1 25.5zm-17 48.4l-35.3 40.6H604z"/><path d="M636.7 277.6l-48.3 76.1 35.3-40.6zM604 353.7l4.2-1.4 5.7-18.9zm34.7-81.9l-8.1-25.5 6.1 31.3zm-8.1-25.5l-42.2 107.4 48.3-76.1zm141.1 0l-4.3 1.4-3.6 33.6zm-36 85l8.7 22.4-6.8-30.3z"/><path d="M737.6 323.4l6.8 30.3-4.5-37.4zm50.2-77.1h-16.1l-7.9 35z"/><path d="M739.9 316.3l4.5 37.4 43.4-107.4zm27.5-68.6l-2.3 3.1-1.3 30.5zm-2.3 3.1l-25.2 65.5 23.9-35zm-34 65.5l-4.7 37.4 7.1-30.3zm-27.8-68.7l-4.3-1.3 8 35zm2.4 3.2l-2.4-3.2 3.7 33.7z"/><path d="M731.1 316.3l-25.4-65.5 1.3 30.5zm-4.7 37.4h18l-8.7-22.4z"/><path d="M733.5 323.4l-7.1 30.3 9.3-22.4zM699 246.3h-16l24 35z"/><path d="M683 246.3l43.4 107.4 4.7-37.4z"/></svg>