<svg id="Слой_1" xmlns="http://www.w3.org/2000/svg" viewBox="0 0 1152 700"><path d="M62.6 334.3l7.6 11.2 17.5-20.8z"/><path d="M87.7 324.7l-17.5 20.8 25.1-15z"/><path d="M84.9 316.2l-22.3 18.1 25.1-9.6zm10.4 14.3l-14.4 22.3 25.1-18z"/><path d="M70.2 345.5l10.7 7.3 14.4-22.3zm-10.4-27.9l2.8 16.7 22.3-18.1zm27.1-38l-14.8 9.3 18.4 14.2z"/><path d="M72.1 288.9l-9.2 13.3 23.4 6.7z"/><path d="M62.9 302.2l-3.1 15.4 25.1-1.4z"/><path d="M86.3 308.9l-23.4-6.7 22 14z"/><path d="M90.5 303.1l-18.4-14.2 14.2 20zm33 68.4l2.9 9.3 22.4-19.1z"/><path d="M141.3 351.1l-17.8 20.4 25.3-9.8zm-60.4 1.7l12.2 4.8 12.9-22.8zm35.1 12.6l7.5 6.1 17.8-20.4zm10.4 15.4l25.3-3.8-2.9-15.3zm-28.8-81.4l-10.7-19.8 3.6 23.5z"/><path d="M106 334.8l-12.9 22.8 25.2-18.7zm24.6 9.1L116 365.4l25.3-14.3zm-37.5 13.7l12.2 3.7 13-22.4z"/><path d="M118.3 338.9l-13 22.4 25.3-17.4zm-13 22.4l10.7 4.1 14.6-21.5zm-3.8 62.6l21.3-3.6-20.5-18.4zm-21.4-28.6L75 418.7l14.4-18.8zM75 418.7l12.9 3.9 1.5-22.7z"/><path d="M122.8 420.3l15.7-10-18.4-13.9zm-49.6-29.5l-9.7 21.9 16.6-17.4zm14.7 31.8l13.6 1.3-12.1-24z"/><path d="M102.3 401.9l20.5 18.4-2.7-23.9zm-38.8 10.8l11.5 6 5.1-23.4zm4.3-24l-4.3 24 9.7-21.9z"/><path d="M64.4 389.6l-.9 23.1 4.3-24zm43-91.6l-20.5-18.4 10.7 19.8zM53.9 404.9l9.6 7.8-1.7-20.7z"/><path d="M61.8 392l1.7 20.7.9-23.1zm27.6 7.9l12.1 24 .8-22zm47.1-91.9l-5.8-27.9 1.2 26.3zm5.9-4l-11.7-23.9 9.1 27zm-24.3-4.4l12.6-19.5-23.3 17.9z"/><path d="M139.8 307.1l-9.1-27 5.8 27.9zm-13.7-4.1l4.6-22.9-12.6 19.5zm12.4 107.3l9.8-14.9-28.2 1z"/><path d="M131.9 306.4l-1.2-26.3-4.6 22.9zm-1.2-26.3l-23.6-4 .3 21.9z"/><path d="M107.1 276.1l-20.2 3.5 20.5 18.4zm13 120.3l28.2-1-21.9-14.6zm29-105.1l-18.4-11.2 11.7 23.9zm-.8 104.1l3.4-18.4-25.3 3.8zm57.3-95.6h26.9l8.3-11z"/><path d="M276.1 277.7H162l43.6 22.1 35.2-11zm-35.3 11.1l-8.3 11h43.6z"/><path d="M276.1 299.8v-22.1l-35.3 11.1zm-114.1 0h43.6L162 277.7zm43.6 0v122.5l13.4-61.2zm0 122.5h26.9L219 361.1z"/><path d="M232.5 422.3V299.8L219 361.1z"/><path d="M219 361.1l13.5-61.3h-26.9zm92.4 6.6l-7 19 33.4-9.5zm-17.8 48.5l10.8-29.5-16.8 8.3z"/><path d="M290.5 420.4l3.1-4.2-6-21.2zm13.9-33.7h59.9l-26.5-9.5z"/><path d="M287.6 395l16.8-8.3 7-19zm50.2-17.8l26.5 9.5-6.9-19z"/><path d="M357.4 367.7l6.9 19 16.8 8.3zm-4.7-45l52.2 99.6-56.8-144.6zm-67.9 99.6l5.7-1.9-2.9-25.4z"/><path d="M384.1 422.3h20.8L381.1 395zm-19.8-35.6l10.8 29.5 6-21.2z"/><path d="M378.4 420.6l5.7 1.7-3-27.3z"/><path d="M375.1 416.2l3.3 4.4 2.7-25.6z"/><path d="M357.4 367.7l23.7 27.3 23.8 27.3-52.2-99.6zm-17.6-48.1l12.9 3.1-15.6-10.7z"/><path d="M357.4 367.7l-4.7-45-12.9-3.1zm-4.7-45l-4.6-45-13.8 24.8z"/><path d="M337.1 312l15.6 10.7-18.4-20.2zm.7 65.2l19.6-9.5h-46zm-26.4-42.1l-.3.4.3 32.2 17.5-47.9zm17.5-15.3l2.7-7.7-20.7-9.6zm-18-17.3l-47.1 119.8 47.3-86.8zm37.2-24.8h-27.4l13.6 24.8z"/><path d="M311.4 367.7l-.3-32.2-47.3 86.8 23.8-27.3zm0-32.6l17.5-15.3-18-17.3.2 33zm-47.6 87.2h21l2.8-27.3zm70.5-119.8l-13.6-24.8 10.9 34.4zm-13.6-24.8l-9.8 24.8 20.7 9.6zM529.9 350l-11.8-72.3v87.9l11.8-15.5zm-11.8 15.6l.2 6.3 11.6-21.8z"/><path d="M529.9 350.1l-11.1 28.7 23 43.5-11.9-72.3z"/><path d="M528 422.3h13.8l-23-43.5zm-9.7-50.4l.5 6.9 11.1-28.7zM443 282l-2-2.2 2 41.5 75.8 57.5z"/><path d="M522.6 421.3l5.4 1-9.2-43.5zm19.2 1V277.7L529.9 350zm-98.8-101l75.5 96.4.3-38.9z"/><path d="M518.5 417.7l4.1 3.6-3.8-42.5zm-74.9 4.6v-88.8l-11.9 44.4zm-17.8-94.5l-5.9-50.1v144.6l11.8-44.4z"/><path d="M436.9 277.9l-2.9-.2h-14.1l5.9 50.1zm2.2.5l-2.2-.5-11.1 49.9zm-19.2 143.9h23.7l-11.9-44.4zm110-72.3l11.9-72.3h-23.7zm-90.8-71.6l3.9 42.9-2-41.5zm-13.3 49.4l17.2-6.5-3.9-42.9zm17.8 5.7l-.6-12.2-17.2 6.5zm-11.9 44.4l11.9-44.4-17.8-5.7zm155.8-27.8l13.4-72.4h-27zm0 0l13.4 72.2V277.7l-13.4 72.4zm-13.6-72.4v144.6l13.6-72.2zm0 144.6h27l-13.4-72.2zm78.8-106.1l-22.2 18.1 25.1-9.6zm1.4-7.3l-23.3-6.7 21.9 14zM638 345.5l10.7 7.3 14.4-22.3z"/><path d="M627.6 317.6l2.9 16.7 22.2-18.1zm2.9 16.7l7.5 11.2 17.6-20.8z"/><path d="M655.6 324.7L638 345.5l25.1-15zm-24.8-22.5l-3.2 15.4 25.1-1.4zm9.1-13.3l-9.1 13.3 23.3 6.7zm35-12.8l-20.2 3.5 20.5 18.4z"/><path d="M675.2 298l-20.5-18.4 10.7 19.8zm-20.5-18.4l-14.8 9.3 18.5 14.2zm3.7 23.5l-18.5-14.2 14.2 20z"/><path d="M665.4 299.4l-10.7-19.8 3.7 23.5zm43.7 51.7l-17.7 20.4 25.3-9.8z"/><path d="M698.4 343.9l-7 27.6 17.7-20.4zm-4.2 36.9l25.3-3.8-2.8-15.3zm-2.8-9.3l2.8 9.3 22.5-19.1z"/><path d="M683.8 365.4l7.6 6.1 7-27.6zm-22.9-7.8l12.2 3.7.7-26.5zm2.2-27.1l-2.2 27.1 12.9-22.8z"/><path d="M648.7 352.8l12.2 4.8 2.2-27.1zm37.4-13.9l-2.3 26.5 14.6-21.5z"/><path d="M673.1 361.3l10.7 4.1 2.3-26.5zm.7-26.5l-.7 26.5 13-22.4zm-52.1 70.1l9.6 7.8-1.7-20.7z"/><path d="M631.3 412.7l11.6 6 5-23.4zm24.4 9.9l13.6 1.3-12-24zm-7.8-27.3l-5 23.4 14.4-18.8zm-5 23.4l12.8 3.9 1.6-22.7zm26.4 5.2l21.3-3.6-20.5-18.4z"/><path d="M657.3 399.9l12 24 .8-22zm12.8 2l20.5 18.4-2.7-23.9zM686 299.6l-11.1-23.5.3 21.9zm-45 91.2l-9.7 21.9 16.6-17.4z"/><path d="M635.6 388.7l-4.3 24 9.7-21.9zm-6 3.3l1.7 20.7.9-23.1z"/><path d="M632.2 389.6l-.9 23.1 4.3-24zm66.3-109.5l-23.6-4 11.1 23.5zm9.2 27l-9.2-27 5.8 27.9zm-17.1 113.2l15.8-10-18.5-13.9z"/><path d="M710.2 304l-11.7-23.9 9.2 27z"/><path d="M699.8 306.4l-1.3-26.3-4.6 22.9z"/><path d="M693.9 303l4.6-22.9-12.5 19.5zm10.4 5l-5.8-27.9 1.3 26.3zm12.6-16.7l-18.4-11.2 11.7 23.9zm-10.5 119l9.8-14.9-28.3 1zm-18.5-13.9l28.3-1-22-14.6zm28.3-1l3.3-18.4-25.3 3.8zm26.7 26.9h84.7l-28.9-11.1zm26.9-22.2l-26.9 22.2 55.8-11.1z"/><path d="M827.6 422.3v-22.2l-28.9 11.1zm-28.9-11.1l28.9-11.1h-57.8zm-28.9-11.1V277.7l-13.4 61.2zm0-122.4h-26.9l13.5 61.2zm-13.4 61.2l-13.5 83.4 26.9-22.2zm-13.5-61.2v144.6l13.5-83.4zm134.3 90l-7 19 53-19zm-20.9 52.7l3.1-4.2 4.5-21.2z"/><path d="M859.4 416.2l10.8-29.5-6.3 8.3z"/><path d="M863.9 395l6.3-8.3 7-19zm59.3-27.3l6.9 19 20.3 17.8z"/><path d="M870.2 386.7h59.9l-6.9-19zm79.7 35.6h20.8l-20.3-17.8zm-19.8-35.6l10.8 29.5 9.5-11.7z"/><path d="M950.4 404.5l20.3 17.8-56.8-144.6z"/><path d="M944.2 420.6l5.7 1.7.5-17.8zm-3.3-4.4l3.3 4.4 6.2-16.1zm-35.3-96.6l8.3-41.9-11 34.3zm-2.7-7.6l11-34.3-13.8 24.8z"/><path d="M913.9 277.7h-27.4l13.6 24.8zm9.3 90l-9.3-90-8.3 41.9z"/><path d="M950.4 404.5l-36.5-126.8 9.3 90zm-50.3-102l-13.6-24.8 10.9 34.4zm-22.9 65.2l-47.6 54.6h21l13.3-27.3z"/><path d="M894.7 319.8l-65.1 102.5 47.6-54.6zm-44.1 102.5l5.7-1.9 7.6-25.4z"/><path d="M897.4 312.1l-10.9-34.4 8.2 42.1z"/><path d="M886.5 277.7l-56.9 144.6 65.1-102.5zm189.9 0l-5.7 1.9-4.8 45.3zm-48.5 114.5l11.8 30.1-9.2-40.9zm2.6-10.8l9.2 40.9-6.1-50.3z"/><path d="M1098.1 277.7h-21.7l-10.5 47.2z"/><path d="M1065.9 324.9l-32.3 47.1 6.1 50.3 58.4-144.6z"/><path d="M1070.7 279.6l-3.2 4.2-1.6 41.1zm-3.2 4.2l-33.9 88.2 32.3-47.1zm-45.8 88.2l-6.3 50.3 9.6-40.9zm-37.4-92.6l-5.7-1.7 10.8 47.2zm3.3 4.4l-3.3-4.4 5.1 45.5z"/><path d="M1021.7 372l-34.1-88.2 1.8 41.1zm-6.3 50.3h24.3l-11.8-30.1zm9.6-40.9l-9.6 40.9 12.5-30.1z"/><path d="M978.6 277.7H957l32.4 47.2z"/><path d="M989.4 324.9L957 277.7l58.4 144.6 6.3-50.3z"/></svg>