<svg id="Слой_1" xmlns="http://www.w3.org/2000/svg" viewBox="0 0 800 600"><style/><path d="M80.1 252.6l1.6-5.8-21.1 8z"/><path d="M60.6 254.8L81.7 240l-64.8 14.8zm-43.7 0L81.7 240H16.9z"/><path d="M35.2 324.9l44.9-72.3-19.5 2.2z"/><path d="M81.7 246.8V240l-21.1 14.8zm-1.1 93v-14.9L14 339.8zm-66.6 0l21.2-14.9-21.2 7.6z"/><path d="M80.6 324.9H35.2L14 339.8zm-65.1 2.5l19.7-2.5 25.4-70.1zm-1.5 5.1l21.2-7.6-20.7 4.9z"/><path d="M14.5 329.8l20.7-4.9-19.7 2.5zm137.7-33.6l16.3-56.2-16.3 42.9zM111 282.9l41.2 13.3v-13.3z"/><path d="M111 296.2h41.2L111 282.9zm41.2-13.3l16.3-42.9h-16.3zM111 339.8v-43.6l-16.3 43.6zm57.5 0V240l-16.3 56.2z"/><path d="M94.7 339.8l16.3-43.6v-13.3zm57.5 0h16.3l-16.3-43.6zM111 240H94.7l16.3 42.9z"/><path d="M94.7 240v99.8l16.3-56.9zm128.6 100.9l15.1-3.1-6.7-14.8zm26.5-11.6l7.2-13.1-15.1-6.1z"/><path d="M238.4 337.8l11.4-8.5L238 318zm-6.7-14.8l6.7 14.8-.4-19.8z"/><path d="M238 318l11.8 11.3-7.9-19.2zm21.6-18.2V240l-16.3 59.8z"/><path d="M243.3 299.8l16.3-59.8h-16.3zm-1.4 10.3l17.7-10.3h-16.3zm15.1 6.1l2.6-16.4-17.7 10.3zm-52.4-6.2l-7.9 19.3 11.8-11.4zm-1.4-10.3l-13.7 16.5 15.1-6.2z"/><path d="M186.9 299.8l2.6 16.4 13.7-16.5zm0-59.8v59.8l16.3-59.8zm2.6 76.2l7.2 13.1 7.9-19.3z"/><path d="M203.2 240l-16.3 59.8 16.3-.1zm4.9 97.8l15.2 3.1-8.5-17.9zm15.2-13v16.1l8.4-17.9z"/><path d="M214.8 323l8.5 17.9v-16.1zm-6.3-5.1l-.4 19.9 6.7-14.8z"/><path d="M196.7 329.3l11.4 8.5.4-19.9zm107.8-50.5l-.7 17.9 11.4-9.8z"/><path d="M315.2 286.9l-11.4 9.8 15-7.5z"/><path d="M320.6 281.5l-16.1-2.7 10.7 8.1z"/><path d="M328.7 243.9l-24.2 34.9 16.1 2.7zm-22.3 55.4l24.8 36.8-9.3-43z"/><path d="M318.8 289.2l-12.4 10.1 15.5-6.2z"/><path d="M337.9 339.8h14.4l-30.4-46.7z"/><path d="M333.6 338.9l4.3.9-16-46.7zm-2.4-2.8l2.4 2.8-11.7-45.8zm.6-95.2l-3.1 3-8.1 37.6zm-28 55.8l2.6 2.6 12.4-10.1zm-9.5-56.7H278l16.3 41.8z"/><path d="M278 240l16.3 55.9v-14.1zm0 99.8l16.3-43.9L278 240zm16.3 0v-43.9L278 339.8zm0-58v14.1l3.8-14.1zm3.8 0l1.3 14.1 2.5-14.8zm52-41.8H336l-15.4 41.5z"/><path d="M294.3 295.9h5.1l-1.3-14.1zm7.6-14.8l1.9 15.6.7-17.9zM336 240l-4.2.9-11.2 40.6z"/><path d="M299.4 295.9l4.4.8-1.9-15.6zm84.8 26.7l-6.6 14.5 18.1-12.1zm-29.7-12.4l9.1 16.2 11.8-10.7z"/><path d="M363.6 326.4l14 10.7 6.6-14.5zm11.8-10.7l-11.8 10.7 20.6-3.8zm-7.4-25.8h-16.7l18.6 14.7zm-16.7 0l3.2 20.3 15.4-5.6z"/><path d="M369.9 304.6l-15.4 5.6 20.9 5.5zm67 5.6l3.1-20.3h-16.6zm-21 5.5l12 10.7-6.5-21.8zm-38.3 21.4l18.1 3.8V325zm29.6-14.5l6.7 14.5 2-21.4z"/><path d="M427.9 326.4l9-16.2-15.5-5.6zm-14 10.7l14-10.7-12-10.7zm9.5-47.2H440l-1.4-14zM395.7 325v15.9l11.5-18.3z"/><path d="M421.4 304.6l15.5 5.6-13.5-20.3zm-66.9-35l-3.2 20.3H368zm15.4 5.6l-15.4-5.6 13.5 20.3zm64.6-11.5l-6.7-10.3-6.4 21.8zm-11.1 26.2l15.2-14-17.2-.7zm-2-14.7l6.4-21.8-11.9 10.7zm-25.7 65.7l18.2-3.8-6.7-14.5zm23.3-95.3l-10.8-5-1 16.5z"/><path d="M363.6 253.4l-9.1 16.2 15.4 5.6zm64.2 0l-8.8-7.8-3.1 18.5z"/><path d="M415.9 264.1l3.1-18.5-11.8 11.5zm22.7 11.8l-4.1-12.2-13.1 11.5zm-54.4-18.8l-6.6-14.4-2.2 21.4z"/><path d="M377.6 242.7l-14 10.7 11.8 10.7z"/><path d="M395.7 238.9l-18.1 3.8 6.6 14.4zm11.5 18.2l1-16.5-12.5 14.1zm-31.8 7l-11.8-10.7 6.3 21.8zm32.8-23.5l-12.5-1.7v15.8z"/><path d="M395.7 254.7v-15.8l-11.5 18.2zm62-13.5l-3.5-1.2 6.5 32.5z"/><path d="M459.7 244.2l-2-3 3 31.3zm-5.5-4.2h-13.1l19.6 32.5zm29.9 79l-1.8-7.4-21.6-39.1z"/><path d="M441.1 240l35.4 99.8-15.8-67.3zm41.2 71.6l-2-6.5-19.6-32.6z"/><path d="M480.3 305.1l-20.6-60.9 1 28.3zm-3.8 34.7h14.7l-7.1-20.8zm25.8-49.9l-14.8 15.2-1.9 6.5zm0 0l7.7-48.6-2 2.9z"/><path d="M502.3 289.9l5.7-45.7-20.5 60.9zm0 0l-16.7 21.7-1.5 7.4zm0 0l-11.1 49.9 35.4-99.8z"/><path d="M484.1 319l7.1 20.8 11.1-49.9zm18.2-29.1zm0 0zm11.1-49.9l-3.4 1.3-7.7 48.6zm-52.7 32.5l15.8 67.3 7.6-20.8zm41.6 17.4zm0 0z"/><path d="M502.3 289.9l24.3-49.9h-13.2zm77.8-31.8l4.1-8.7-5.6 10.8zm-34.8 8.5l-15.2.9 16.9 4.9z"/><path d="M530.1 267.5l1.7 11.5 15.2-6.6zm1.9-10.6l-1.9 10.6 15.2-.9zm4.4 29.9l6.5 5 4.1-19.4z"/><path d="M531.8 279l4.6 7.8 10.6-14.4zm5.7-31.3l-5.5 9.2 14.1 4.6z"/><path d="M546.5 241.3l-9 6.4 11.2 9.8z"/><path d="M553 254.9l-6.5-13.6 2.2 16.2zm-6 17.5l-4.1 19.4 8.7-15.4zm-.9-10.9l-14.1-4.6 13.3 9.7zm2.6-4l-11.2-9.8 8.6 13.8zm30.8 33.1l-10.8 14.1L584 298z"/><path d="M564.1 300.6l4.6 4.1 10.8-14.1zm-5.4-61.7l-12.2 2.4 6.5 13.6zm-32.2 88.9l5.8 5.4-1-14.3zm43.9-16.7l15.4-2.6L584 298z"/><path d="M573 285.6l-8.9 15 15.4-10zm-7.5-3.4l-7.9 15.5 15.4-12.1zm-13.9-5.8l-1.3 18.7 7.8-15.7z"/><path d="M550.3 295.1l7.3 2.6.5-18.3zm-7.4-3.3l7.4 3.3 1.3-18.7zm14.7 5.9l6.5 2.9 8.9-15zm.5-18.3l-.5 18.3 7.9-15.5zm10.6 25.3l1.7 6.4L584 298zm-29.4 32.6l7.8 2.7.9-15.7zm3.1-16.1l-3.1 16.1 8.7-13zm5.6 3.1l-.9 15.7 8.7-14.3z"/><path d="M555.3 340.9l12.9-2.5-12.4-12.7z"/><path d="M547.1 340l8.2.9.5-15.2z"/><path d="M555.8 325.7l12.4 12.7-1.6-16.5zm-23.5 7.5l7 4.1 3.1-16.1zm26.6-79.2l-.2-15.1-5.7 16zm-27.6 64.9l1 14.3.6-15.9z"/><path d="M532.9 317.3l-.6 15.9 2.6-16.6zm2-.7l-2.6 16.6 5.9-15.2zm3.3 1.4l-5.9 15.2 10.1-12zm28.4 3.9l17.1-.7-13.3-10.1zm3.6-64.4l14-8.1-18.8 5.7zm14-8.1l-11.2-7.7-7.6 13.4z"/><path d="M573.8 259.8l10.4-10.4-14 8.1zm-5.6 78.6l9.6-6.9-11.2-9.6zm-2.8-83.3l7.6-13.4-14.1 12.3z"/><path d="M573 241.7l-14.3-2.8.2 15.1zm3.5 19.2l7.7-11.5-10.4 10.4zm7.2 60.3l2.1-12.7-15.4 2.6zm-5.9 10.3l5.9-10.3-17.1.7z"/><path d="M578.6 260.2l5.6-10.8-7.7 11.5zm58.6 26.7l-8.8 12.4 12.4-10.1z"/><path d="M625.7 296.7l2.7 2.6 8.8-12.4zm.8-17.9l-2.7 2.3 13.4 5.8zm16.1 2.7l-16.1-2.7 10.7 8.1zm17.3 58.3h14.3l-30.4-46.7z"/><path d="M640.8 289.2l-12.4 10.1 15.4-6.2zm14.8 49.7l4.3.9-16.1-46.7zm-5-95l-24.1 34.9 16.1 2.7z"/><path d="M653.2 336.1l2.4 2.8-11.8-45.8zm-24.8-36.8l24.8 36.8-9.4-43zm-4.6-18.2l1.9 15.6 11.5-9.8zM599.9 240v99.8l16.3-58zm0 99.8l16.3-43.9v-14.1zm16.3-99.8h-16.3l16.3 41.8zm0 99.8v-43.9l-16.3 43.9zm0-43.9h5.2l-5.2-14.1zm3.8-14.1l1.4 14.1 2.4-14.8zm38-41.8l-4.2.9-11.2 40.6zm14.1 0H658l-15.4 41.5z"/><path d="M621.4 295.9l4.3.8-1.9-15.6zm32.4-55l-3.2 3-8 37.6z"/><path d="M616.2 281.8l5.2 14.1-1.4-14.1zm74.9 8.1l8.2-49.9H683z"/><path d="M699.3 339.8V240l-8.2 49.9z"/><path d="M683 240v99.8l8.1-49.9z"/><path d="M683 339.8h16.3l-8.2-49.9zm65.5-51.5l8 12.8-6.2-18z"/><path d="M740.2 301.1h16.3l-8-12.8z"/><path d="M746.6 283.1l-6.4 18 8.3-12.8zm6.1-5.6l3.8 23.6 12.1-57z"/><path d="M750.3 283.1l6.2 18-3.8-23.6zM774 240l-17.5 61.1 31.9-61.1z"/><path d="M770.6 241.3l-14.1 59.8L774 240z"/><path d="M768.6 244.1l-12.1 57 14.1-59.8zm-28.4 95.7h16.3l-8.1-19.3zM708.3 240l31.9 61.1-17.5-61.1zm35.8 37.5l-3.9 23.6 6.4-18z"/><path d="M756.5 339.8v-38.7l-8.1 19.4z"/><path d="M740.2 301.1v38.7l8.2-19.3z"/><path d="M748.4 320.5l8.1-19.4h-16.3zM722.7 240l17.5 61.1-14.2-59.9zm5.4 4.1l12.1 57 3.9-23.6z"/><path d="M726 241.2l14.2 59.9-12.1-57z"/></svg>